<svg id="Calque_1" data-name="Calque 1" xmlns="http://www.w3.org/2000/svg" viewBox="0 0 100 98.64"><title>fog</title><g id="Regular-M"><path d="M20.58,66.51H74.91c14.36,0,25.09-10.9,25.09-24.43C100,28.16,88.57,18,73.73,18,68.26,7.14,58.1.18,45.49.18A31.79,31.79,0,0,0,14,29.34,18.89,18.89,0,0,0,0,47.77C0,58.11,7.53,66.51,20.58,66.51Zm-.09-7.05C11.51,59.46,7,54.47,7,48c0-5.3,3.06-10,10.5-12,2.45-.62,3.33-1.76,3.51-4.25C22,17.48,32.79,7.19,45.49,7.19c9.81,0,17.56,5.38,22.29,15.1,1,2.1,2.32,2.85,4.9,2.85C85.64,25.14,93,33,93,42.3c0,9.54-7.62,17.16-17.6,17.16Zm58,19h-57a2.78,2.78,0,0,0,0,5.56h57a2.78,2.78,0,0,0,0-5.56Zm0,14.89h-57a2.76,2.76,0,1,0,0,5.51h57a2.76,2.76,0,1,0,0-5.51Z" transform="translate(0 -0.18)"/></g></svg>