<?xml version="1.0" encoding="utf-8"?><!--Generator: Adobe Illustrator 24.0.1, SVG Export Plug-In . SVG Version: 6.00 Build 0)--><svg version="1.1" id="Calque_1" xmlns="http://www.w3.org/2000/svg" x="0" y="0" viewBox="0 0 500 500" xml:space="preserve"><style>.st11,.st2,.st8{fill:#1b76bc}.st11,.st8{opacity:.14;enable-background:new}.st11{opacity:.44;fill:#fff}.st12{opacity:.32;fill:#1b76bc}.st12,.st26,.st47{enable-background:new}.st26{fill:#0c4466;opacity:.38}.st47{opacity:.24}.st47,.st48{fill:#fff}</style><linearGradient id="SVGID_1_" gradientUnits="userSpaceOnUse" x1="126.36" y1=".55" x2="216.71" y2="238.04" gradientTransform="matrix(1 0 0 -1 0 502)"><stop offset="0" stop-color="#fff" stop-opacity="0"/><stop offset="1" stop-color="#2483c4"/></linearGradient><path opacity=".15" fill="url(#SVGID_1_)" d="M412.9 338.1l-117 78.9-.8.6h-60.9l-27.8-17.3 29.9-17.3-131.2-77.3H61.2l-27.8-17.3L54.8 276 0 243.8l41.3-15.1 341.5 95.1z"/><linearGradient id="SVGID_2_" gradientUnits="userSpaceOnUse" x1="420.97" y1="313.85" x2="398.37" y2="221.49" gradientTransform="matrix(1 0 0 -1 0 502)"><stop offset="0" stop-color="#fff" stop-opacity="0"/><stop offset="1" stop-color="#2483c4"/></linearGradient><path d="M500 246.4c-14.7 8-32 10-48.7 9.6-4.9-.1-10-.4-14.6 1.3-5.1 1.9-9 6-14 8.1-4.8 2-10.2 1.9-15.4 2-9.4.1-18.7.5-28 1.3-3.1.3-6.3.6-9.1 1.8-6.7 2.8-11.5 10.3-18.8 10.6-2 .1-3.9-.4-5.9 0-3.3.6-5.8 3.6-9.1 4.2-2.5.4-5-.6-7.4-1.2-3.4-.8-7-.8-10.4-1.3-3.5-.5-7-1.6-9.4-4.2-2.3-2.6-2.9-7-.5-9.6 1.3-1.3 3.1-1.9 4.8-2.5L351 254c5-1.7 10-3.3 15.3-3.8 6.1-.6 12.3.4 18.5-.1 14.1-1.1 27.4-4.9 41.8-4.1 14.8.8 29.5.3 44.4.2h14.8c3.2.1 11.4 1.7 14.2.2z" opacity=".15" fill="url(#SVGID_2_)"/><path class="st2" d="M312.5 264.3c-1.6 1.5-3.5 2.8-4.9 4.5-1.4 1.7-2.3 4.1-1.5 6.2.7 1.9 2.8 3.2 4.8 3.4 2.1.3 4.1-.4 6.1-1.1 2.9-1.2 5.7-2.8 8.1-4.9 1.2-1 2.3-2.1 3.7-2.8.7-.3 1.3-.6 1.9-1 .6-.4 1-1 1.1-1.7 0-.4-.1-.8-.2-1.1l-1.7-5.8c-.1-.5-.4-.8-.9-.9-3.1-.8-7.3-2.3-10.5-1.5-1.3.3-1.9 1.7-2.6 2.7-1 1.4-2.2 2.8-3.4 4zM332.4 274.2c-1.9 1.8-4.1 3.3-5.7 5.3-1.6 2-2.7 4.8-1.8 7.2.8 2.3 3.2 3.7 5.7 4 2.4.3 4.8-.4 7.1-1.3 3.5-1.4 6.7-3.3 9.5-5.7 1.4-1.1 2.7-2.4 4.3-3.3.8-.3 1.5-.7 2.2-1.1.7-.4 1.2-1.2 1.3-2 0-.5-.1-.9-.2-1.4l-2-6.7c0-.2-.1-.4-.3-.6-.2-.2-.5-.3-.8-.4-3.6-.9-8.6-2.7-12.3-1.8-1.5.4-2.2 2-3 3.2-1.1 1.6-2.5 3.2-4 4.6z"/><linearGradient id="SVGID_3_" gradientUnits="userSpaceOnUse" x1="375.62" y1="406.11" x2="359.26" y2="388.88" gradientTransform="matrix(1 0 0 -1 0 502)"><stop offset="0" stop-color="#69e3ff"/><stop offset="1" stop-color="#69bbed"/></linearGradient><path d="M340.4 88.3c2.6-.2 5.2.6 7.6 1.6 4.2 1.7 8.1 3.8 11.8 6.4 2.7 1.9 5.3 4 6.7 6.9 1 2.1 1.4 4.5 1.7 6.8l2.6 19.4c1.2 9.1 1.9 19.9-5 26-2.4 2.1-5.7 3.3-8.8 2.4-3-1-5-3.8-6.5-6.6-6.1-11.3-8.6-24.1-12.9-36.2-1.9-5.2-6.8-11.3-7.8-16.5s5.7-9.8 10.6-10.2z" fill="url(#SVGID_3_)"/><path class="st2" d="M364.9 109.2l-1.9-6.1-10.1 3.1-22.7-10.8-.3 3.1 21.7 13.6z"/><linearGradient id="SVGID_4_" gradientUnits="userSpaceOnUse" x1="312.42" y1="285.97" x2="337.67" y2="285.97" gradientTransform="matrix(1 0 0 -1 0 502)"><stop offset="0" stop-color="#69e3ff"/><stop offset="1" stop-color="#69bbed"/></linearGradient><path d="M315.1 171.4c-1.6 1.1-1.5 3.3-1.5 6.8.1 6.6.1 13.3-.6 19.9-.6 5.3-1.2 11.6 2.7 15.2-3.7 3.7-3.6 9.6-3.2 14.8.6 9.1 1.2 18.2 1.7 27.3.1 1.4.3 3 1.4 3.8.6.5 1.5.6 2.3.7l9.8 1.3c2.6.3 5.6.5 7.3-1.5 1.1-1.3 1.1-3.1 1.2-4.8.3-8.6.4-17.2.5-25.9 0-3.4-1.6-5.8-1.9-8.9-.2-2 .2-4.3.3-6.3l1-17.8 1.3-24.5c0 .1-17.2-.8-18.6-.9-1.6 0-2.9.2-3.7.8z" fill="url(#SVGID_4_)"/><linearGradient id="SVGID_5_" gradientUnits="userSpaceOnUse" x1="330.05" y1="283.54" x2="363.84" y2="283.54" gradientTransform="matrix(1 0 0 -1 0 502)"><stop offset="0" stop-color="#69e3ff"/><stop offset="1" stop-color="#69bbed"/></linearGradient><path d="M361.7 161.8c-.3 3.9 1.3 7.2 1.8 11.1.6 4.3.4 8.6.1 12.9-.5 11.2-1.5 23.4-9.1 31.6 2.5 1.9 4.8 4.4 5.6 7.5.5 1.9.5 3.9.4 5.9-.2 6.5-.8 13-1.6 19.5-.8 5.5-.9 14.2-3.6 19.2-3.2 5.8-15.9 8.8-19.1 1.3-2-4.7-.9-12.3-1.4-17.5-.7-6.9-1.5-13.7-2.6-20.6-.5-3.1-1-6.2-.4-9.3.6-3 2.7-6 5.7-6.8-2.5-.7-4.3-3-5.2-5.4-.9-2.4-1-5.1-1.1-7.7-.3-9.9-2.1-21.1-.8-30.9 5.6-1.8 11.2-3.4 16.8-5.1 4.3-1.4 11.2-2.5 14.5-5.7z" fill="url(#SVGID_5_)"/><linearGradient id="SVGID_6_" gradientUnits="userSpaceOnUse" x1="276.41" y1="363.4" x2="317.2" y2="363.4" gradientTransform="matrix(1 0 0 -1 0 502)"><stop offset="0" stop-color="#69e3ff"/><stop offset="1" stop-color="#69bbed"/></linearGradient><path d="M296.7 128.7c-.5 2-.7 4 .2 5.7-2.4-.3-4.8 1-6.5 2.8-1.7 1.8-2.9 4-4.3 5.9-2.3 3.1-5.3 5.5-8 8.2-.8.8-1.5 1.6-1.7 2.7-.1 1 .2 2 .6 2.9.8 1.9 1.6 3.8 2.9 5.4 1.3 1.6 3.2 2.8 5.3 2.8 1.2 0 2.4-.4 3.6-.8 3.4-1.3 7-2.6 9.4-5.4 1.8-2.1 2.8-4.7 2.8-7.4 1.9 1 4.2-.2 5.9-1.5 2.4-1.7 4.7-3.5 6.6-5.8 1.8-2.1 4-5.9 3.7-8.8-.3-3.1-3.4-5.5-3.4-8.8 0-2.2-.5-4.3-1.1-6.4-.8-2.7-3.2-8.2-6.6-8.2-2.5 0-3.4 2.7-4.3 4.5-1.5 3.1-2.9 6.3-4.1 9.5-.5.9-.8 1.8-1 2.7z" fill="url(#SVGID_6_)"/><linearGradient id="SVGID_7_" gradientUnits="userSpaceOnUse" x1="259.25" y1="334.18" x2="283.86" y2="334.18" gradientTransform="matrix(1 0 0 -1 0 502)"><stop offset="0" stop-color="#69e3ff"/><stop offset="1" stop-color="#69bbed"/></linearGradient><path d="M266.7 158.3l-.6.3c-.8.3-1.5.7-2 1.3-.5.6-.7 1.6-.1 2.2.2.2.5.4.5.7 0 .2-.1.4-.3.6-1.3 1.5-2.7 2.9-3.7 4.6s-1.5 3.8-1 5.7c.4 1.5 1.6 2.8 2.7 3.9 2.2 2 5 3.6 7.9 3.1 1-.2 2.1-.8 2.4-1.8.3-.9 0-1.8.2-2.7.3-1.9 2.5-2.9 4.3-3.7 2.4-1.1 4.9-2.7 6-5.1 2-4.4.7-11.6-4.9-12.3-3.9-.6-7.9 1.6-11.4 3.2z" fill="url(#SVGID_7_)"/><path class="st8" d="M305.9 131.2c-.8 3.7-3 7-6 9.2-.8.6-1.7 1.1-2 2.1-.3.9.1 1.9 0 2.9-.1 1.6-1.4 2.8-2.5 3.9-3.6 3.3-7.3 6.7-11.9 8.4-4.8 1.9-10.4 1.9-14.5 5-.5.4-1 .9-.9 1.5 0 .5.5.9.5 1.4.2 1.3-1.7 1.6-2.8 2.3-1.7 1.1-1.7 3.7-.5 5.3 1.2 1.6 3.2 2.4 5 3.1.4.2.9.2 1.3.1.6-.3.7-1.1.9-1.8 1-3 5.5-2.7 7.6-5 .9-.9 1.3-2.2 2.3-3.1.8-.6 1.8-.9 2.7-1.2 5-1.4 10.4-3.8 12.1-8.7.4-1.1.6-2.4 1.3-3.4 1.8-2.7 6-2.3 9-3.8 3.2-1.6 4.7-5.5 4.4-9.1-.3-3.6-2.1-6.8-4.1-9.7-1.5.1-2.8.9-3.6 2.2l1.7-1.6z"/><linearGradient id="SVGID_8_" gradientUnits="userSpaceOnUse" x1="304.71" y1="365.73" x2="361.64" y2="365.73" gradientTransform="matrix(1 0 0 -1 0 502)"><stop offset="0" stop-color="#69e3ff"/><stop offset="1" stop-color="#69bbed"/></linearGradient><path d="M332 99.7c8.4 4.4 17.4 9.4 21.3 18.1 3.5 7.6 2.2 16.5 3.1 24.8.5 4.5 1.7 8.9 3.5 13.1.8 1.9 1.8 3.9 1.7 6-.1 2.7-2 5-3.8 7.1-2.1 2.4-4.3 4.9-7.3 6.2-2.1.9-4.5 1-6.8 1.1-10 .3-20.4-.9-29.2-5.7-.4-.2-.7-.4-.9-.7-.6-.8-.4-1.9-.1-2.9 1.8-6.6 2.8-13.7.7-20.2-1.4-4.4-4.1-8.3-6-12.5-1.7-4-2.9-8.2-3.3-12.5-.7-6.4.2-13.4 4.6-18.2 2.8-3 7.2-5.3 11-6.7 4.1-1.4 8 1.2 11.5 3z" fill="url(#SVGID_8_)"/><linearGradient id="SVGID_9_" gradientUnits="userSpaceOnUse" x1="363.72" y1="358.65" x2="336.81" y2="355.21" gradientTransform="matrix(1 0 0 -1 0 502)"><stop offset="0" stop-color="#69e3ff"/><stop offset="1" stop-color="#69bbed"/></linearGradient><path d="M327.7 122.4c2.6 1.2 5.5 2.8 6 5.6.6 2.8-1.5 5.3-3.1 7.6-2.7 3.9-4.7 8.6-4.5 13.3.1 3.1.9 6.6-1.2 8.8-1 1-2.5 1.9-2.1 3.2.2.5.6.9 1 1.2l10 7.7c3 2.3 6.1 4.7 9.8 5.5 1.5.3 3 .4 4.5.2 1.2-.1 2.3-.5 3.2-1.2 2.3-1.7 2.4-5 2.2-7.9-.6-6.3-2.3-12.3-3.2-18.6-.8-5.9-.7-11.9-2-17.8-1-4.4-3.3-11.8-8-13.6-2.1-.8-4 0-5.8 1.1-.9.9-5.8 5.4-6.8 4.9z" fill="url(#SVGID_9_)"/><circle class="st11" cx="355.1" cy="150.1" r="22.7"/><circle class="st11" cx="354" cy="150.1" r="18.6"/><path class="st12" d="M366.2 161.9s-14.2 8.6-11.2 10.9 17.8-4.2 21.1-9.4c3.3-5.2-9.9-1.5-9.9-1.5z"/><path class="st12" d="M365.3 163.9s-9.3 5.7-7.4 7.2c2 1.5 11.8-2.8 13.9-6.2 2.2-3.4-6.5-1-6.5-1z"/><circle class="st11" cx="346.1" cy="141.5" r="6.8"/><circle class="st11" cx="342" cy="153.8" r="3.7"/><linearGradient id="SVGID_10_" gradientUnits="userSpaceOnUse" x1="318.29" y1="391.25" x2="338.82" y2="363.83" gradientTransform="matrix(1 0 0 -1 0 502)"><stop offset="0" stop-color="#69e3ff"/><stop offset="1" stop-color="#69bbed"/></linearGradient><path d="M324.2 99.2s8.1-2.8 15.1 8.6c3.1 5.1-10.9 18.6-18.6 17-7.7-1.6-24.2-3-21.4-12.7s8.2-11.9 8.2-11.9l16.7-1z" fill="url(#SVGID_10_)"/><path class="st2" d="M323.4 96.4s9.9 2.1 11.7 7.8c1.8 5.7-7.5 19.5-15.2 17.8s-23.1-1.9-20.3-11.6 7.1-13 7.1-13l16.7-1z"/><linearGradient id="SVGID_11_" gradientUnits="userSpaceOnUse" x1="318.91" y1="391.62" x2="329.62" y2="392.16" gradientTransform="matrix(1 0 0 -1 0 502)"><stop offset="0" stop-color="#eec6d9"/><stop offset=".42" stop-color="#f1d6d3"/><stop offset="1" stop-color="#f4eccb"/></linearGradient><path d="M321.1 117.1c2.1-1.2 3.5-3.3 3.8-5.6.3-2.4-.5-4.8-2-6.6-.9-1-2.1-1.9-3.4-1.8s-2.3 1.3-3.1 2.4c-1.5 2.2-3.5 5.9-2.1 8.6 1.1 2.4 4.4 4.3 6.8 3z" fill="url(#SVGID_11_)"/><linearGradient id="SVGID_12_" gradientUnits="userSpaceOnUse" x1="297.89" y1="394.17" x2="322.65" y2="394.17" gradientTransform="matrix(1 0 0 -1 0 502)"><stop offset="0" stop-color="#eec6d9"/><stop offset=".42" stop-color="#f1d6d3"/><stop offset="1" stop-color="#f4eccb"/></linearGradient><path d="M300.7 113.1c-.1.6-.1 1.2-.1 1.8 0 .6.3 1.1.8 1.5.5.3 1.1.1 1.7.2 1 .1 1.9.8 2.7 1.4 1.2.9 2.6 1.6 4 1.3.6-.2 1.1-.4 1.6-.8 3.4-2.2 6.1-5.4 7.5-9.1.1-.4.3-.8.6-1.1.2-.1.4-.3.7-.4.9-.5 1.4-1.4 1.8-2.3.5-1 .7-2.1.6-3.1-.1-1.1-.7-2.1-1.7-2.6s-2.3-.2-2.8.8c-.7-1.6-1.9-2.8-3.5-3.4-1.6-.6-3.2-.9-4.9-.9-4 0-8.1 1-11 3.7-1.5 1.4-.4 4.6.2 6.3.8 2.1 1.9 4.3 1.8 6.7z" fill="url(#SVGID_12_)"/><path d="M293.3 93.6c-.7 2 .3 4.2 1.5 6.1.8 1.2 1.6 2.5 3 3 1.4.6 3.1.2 4.6.7.9.3 1.6.9 2.5 1.3 1.1.5 2.4.6 3.6.7 1.9.2 3.8.3 5.5-.6 1.6-.8 2.6-2.4 3.9-3.5.4-.4.8-.6 1.3-.7 1.3-.3 2.4 1 3.2 2.2.9-3 1.4-6.2 1-9.2s-1.7-6.1-4-8.3c-2.5-2.3-5.7-3.5-9-3.5s-6.6 1-9.3 2.8c-1 .6-2 1.4-2.5 2.5-.4.9-.3 1.4-1 2.1-1.6 1.5-3.6 2.3-4.3 4.4z" fill="#433005"/><path class="st2" d="M80.1 251l-38.8-22.4-.3-34.9L196.3 181l-.3 34.9-71.5 41.2 16.2 9.4-16.9 9.8-16.2-9.4-22.6 13L66.1 269l14-18zM282.1 273.9c-.3-3-1.3-5.9-3-8.5-1.7-2.5-3.7-4.7-6.1-6.5-2.1-1.7-4.4-3.2-6.7-4.6-2.6-1.4-5.2-2.7-8-3.9-.1-.1-.2-.1-.3-.2-2.3-2.7 5.4-22.5 1.3-23.4-4.3-1-20.4-7.5-25.8-7.7s-26.7 2.7-33.3 3.8c-6.6 1.1-12.8 10-20.5 12.8S168.6 247 159.8 252c-6.9 4-7.2 15.4-9.3 22.1-.6 1.8-1.3 3.3-2.3 4.2-4.8 4.4-8.2 8.5-10.1 12.3-1.2 2.2-1.9 4.5-2.3 7-.2 1.1-.2 2.3-.1 3.4v.1c.3 3 1.3 5.8 3 8.3 1.7 2.5 3.7 4.7 6.1 6.5 2.1 1.7 4.4 3.2 6.7 4.6 2.6 1.4 5.2 2.7 8 3.9 3.6 1.5 7.4 2.7 11.3 3.5 4.8 1 9.7 1.6 14.6 1.8 6 .1 12-.3 18-1.4 6.5-1.1 13.6-3 21.3-5.8 7.6-2.8 15.8-6.7 24.6-11.8 8.8-5.1 15.6-9.8 20.4-14.2 4.8-4.4 8.2-8.5 10.1-12.3 1.2-2.3 2.1-4.9 2.4-7.5 0-.9 0-1.9-.1-2.8zm-30.5 9.5c-2.9 3.5-6.3 6.6-10 9.1-4.1 2.9-7.8 5.3-11.3 7.3-3.4 2-7.7 4.2-12.7 6.5-5.1 2.4-10.4 4.3-15.8 5.8-5.5 1.5-11.1 2.2-16.8 2.2-5.5 0-10.8-1.4-15.6-4.1-4.7-2.7-7.1-5.7-7.1-9s1.3-6.5 3.9-9.7c2.4-2.9 5.1-5.5 8.1-7.7a139.82 139.82 0 0113.2-8.7c3.4-2 7.7-4.2 12.7-6.5 5-2.3 6.3 13.5 11.8 12 5.5-1.5 14.2-6.4 19.9-6.4 4.1 0 9-12.8 12.6-11.4 1.4.5 2.7 1.2 4 1.9 4.7 2.7 7.1 5.7 7.1 9-.1 3.2-1.4 6.5-4 9.7z"/><linearGradient id="SVGID_13_" gradientUnits="userSpaceOnUse" x1="211.45" y1="228.46" x2="205.04" y2="364.22" gradientTransform="matrix(1 0 0 -1 0 502)"><stop offset="0" stop-color="#69e3ff"/><stop offset="1" stop-color="#69bbed" stop-opacity="0"/></linearGradient><path d="M162.3 265.8V146.1l90.6-28.5 2.6 120.6s.6 17-33.8 32.2-54.7 9.5-59.4-4.6z" fill="url(#SVGID_13_)"/><linearGradient id="SVGID_14_" gradientUnits="userSpaceOnUse" x1="213.28" y1="227.19" x2="206.53" y2="370.22" gradientTransform="matrix(1 0 0 -1 0 502)"><stop offset="0" stop-color="#69e3ff"/><stop offset="1" stop-color="#69bbed" stop-opacity="0"/></linearGradient><path d="M175.6 269.5l-1.8-148.3 69.1-10 .7 140.8s12.4 3.3-22 18.4-41.3 13.1-46-.9z" fill="url(#SVGID_14_)"/><radialGradient id="SVGID_15_" cx="225.61" cy="242.24" r="31.97" gradientTransform="matrix(1 0 0 -1 0 502)" gradientUnits="userSpaceOnUse"><stop offset="0" stop-color="#fff"/><stop offset="1" stop-color="#69e3ff" stop-opacity="0"/></radialGradient><circle cx="225.6" cy="259.8" r="32" fill="url(#SVGID_15_)"/><linearGradient id="SVGID_16_" gradientUnits="userSpaceOnUse" x1="206.19" y1="292.91" x2="211.35" y2="177.19" gradientTransform="matrix(1 0 0 -1 0 502)"><stop offset="0" stop-color="#69e3ff"/><stop offset="1" stop-color="#1b76bc"/></linearGradient><path d="M282.1 238.5v38.3a20 20 0 01-2.4 7.5c-1.9 3.8-5.3 7.9-10.1 12.3s-11.6 9.1-20.3 14.2c-8.8 5.1-17 9-24.6 11.7-7.6 2.8-14.7 4.7-21.3 5.8-5.9 1.1-11.9 1.5-18 1.4-4.9-.1-9.8-.7-14.6-1.8a66.93 66.93 0 01-19.3-7.4c-2.3-1.4-4.6-2.9-6.7-4.6-2.4-1.8-4.4-4-6.1-6.5-1.7-2.5-2.8-5.3-3.1-8.3v-3.6l.4-32c4.5 3.2 9.3 6 14.2 8.6 7.6 4 15.6 7.3 23.8 9.7 18.4 5.2 40.2 5.9 57.6-9.7 4.6-4.1 8.8-7.9 12.6-11.4 5.2-4.8 9.7-8.9 13.6-12.5 16.2-15 21.1-20.2 21.1-20.2l3.2 8.5z" fill="url(#SVGID_16_)"/><path class="st2" d="M271.1 361.4L228 336.5v-35.4l154.8-12.7v35.4L311.3 365l16.2 9.4-16.9 9.8-16.3-9.4-22.6 13-18.9-10.9 18.3-15.5z"/><linearGradient id="SVGID_17_" gradientUnits="userSpaceOnUse" x1="74.62" y1="317.12" x2="76.67" y2="212.26" gradientTransform="matrix(1 0 0 -1 0 502)"><stop offset="0" stop-color="#69e3ff"/><stop offset="1" stop-color="#1b76bc"/></linearGradient><path fill="url(#SVGID_17_)" d="M66.5 233.8v35.4l19.1 10.9v-35.4z"/><linearGradient id="SVGID_18_" gradientUnits="userSpaceOnUse" x1="130.93" y1="318.21" x2="132.98" y2="213.36" gradientTransform="matrix(1 0 0 -1 0 502)"><stop offset="0" stop-color="#69e3ff"/><stop offset="1" stop-color="#1b76bc"/></linearGradient><path fill="url(#SVGID_18_)" d="M140.9 231.2l.1 35.3-17.3 10 .3-35.5z"/><linearGradient id="SVGID_19_" gradientUnits="userSpaceOnUse" x1="41.34" y1="295.61" x2="196.12" y2="295.61" gradientTransform="matrix(1 0 0 -1 0 502)"><stop offset="0" stop-color="#69e3ff"/><stop offset="1" stop-color="#69bbed"/></linearGradient><path d="M88.8 220.7l-47.5-27.4L60 182.5l114.7-14.3 21.5 12.4-71.5 41.2 16.2 9.4L124 241l-16.2-9.4-22.6 13-18.9-10.9 22.5-13zm61.7-35.7l-.3-.2-72.7 9.7 28.2 16.3 44.8-25.8z" fill="url(#SVGID_19_)"/><linearGradient id="SVGID_20_" gradientUnits="userSpaceOnUse" x1="135.64" y1="249.97" x2="282.14" y2="249.97" gradientTransform="matrix(1 0 0 -1 0 502)"><stop offset="0" stop-color="#69e3ff"/><stop offset="1" stop-color="#69bbed"/></linearGradient><path d="M282.1 238.5c-.3-3-1.3-5.9-3-8.4s-3.7-4.7-6.1-6.5c-2.1-1.7-4.4-3.2-6.7-4.6-2.6-1.4-5.2-2.7-8-3.9-3.6-1.5-7.4-2.7-11.3-3.5-4.8-1-9.7-1.6-14.6-1.8-6-.1-12 .3-18 1.4-6.5 1.1-13.6 3-21.3 5.8-7.6 2.8-15.8 6.7-24.6 11.8-8.8 5.1-15.6 9.8-20.4 14.2-4.8 4.4-8.2 8.5-10.1 12.3-1.9 3.8-2.7 7.2-2.4 10.4.3 3 1.3 5.9 3 8.4s3.7 4.7 6.1 6.5c2.1 1.7 4.4 3.2 6.7 4.6 2.6 1.4 5.2 2.7 8 3.9 3.6 1.5 7.4 2.7 11.3 3.5 4.8 1 9.7 1.6 14.6 1.8 1.1 0 2.3.1 3.4 0 4.9-.1 9.7-.6 14.5-1.4a122.48 122.48 0 0025.4-7.4c7.1-2.9 13.9-6.3 20.5-10.2 8.8-5.1 15.6-9.8 20.4-14.2s8.2-8.5 10.1-12.3c2-3.8 2.8-7.3 2.5-10.4zM185 278.9c-4.7 0-9.4-1-13.7-3.1-.6-.3-1.3-.6-1.9-1-4.7-2.7-7.1-5.7-7.1-9s1.3-6.5 3.9-9.7c2.6-3.1 5.6-6 8.9-8.3l1.1-.8c4.1-2.9 7.8-5.3 11.3-7.3 3.4-2 7.7-4.2 12.7-6.5 5.1-2.4 10.4-4.3 15.9-5.8a67.86 67.86 0 0116.8-2.3c5.5 0 10.8 1.4 15.6 4.1 4.7 2.7 7.1 5.7 7.1 9s-1.3 6.5-3.9 9.7c-2.9 3.5-6.3 6.6-10 9.1-4.1 2.9-7.8 5.3-11.3 7.3-.3.2-.7.4-1 .6-3.3 1.8-7.1 3.8-11.7 5.9-1.4.6-2.8 1.3-4.2 1.8-2.7 1.1-5.4 2.1-8.3 3-1.1.4-2.3.7-3.4 1-3 .8-6.1 1.4-9.2 1.8l-3.6.3c-1.3.2-2.7.2-4 .2z" fill="url(#SVGID_20_)"/><path d="M258.9 245.5c-3 16.1-53.7 34.4-53.7 34.4-11.1 3.4-16.2-1.1-16.2-1.1l3.6-.3c3.1-.4 6.2-1 9.2-1.8 1.1-.3 2.3-.6 3.4-1 2.8-.9 5.6-1.9 8.3-3l4.2-1.8c4.5-2.1 8.4-4.1 11.7-5.9.4-.2.7-.4 1-.6 3.4-2 7.2-4.4 11.3-7.3 3.7-2.6 7.1-5.7 10-9.1 2.6-3.2 3.9-6.4 3.9-9.7 0-3.3-2.4-6.3-7.1-9-1-.6-2.1-1.1-3.1-1.6l.6-.5c-.2-.1 15.9 2.2 12.9 18.3z" opacity=".06" fill="#fff"/><path class="st26" d="M162.7 273.3c.4 1.5 1.2 2.9 2.3 4 1.8 1.8 5.9 3.3 5.9 3.3h2.2l2.5-2.7-12.1-7-.8 2.4z"/><linearGradient id="SVGID_21_" gradientUnits="userSpaceOnUse" x1="228.01" y1="187.78" x2="382.77" y2="187.78" gradientTransform="matrix(1 0 0 -1 0 502)"><stop offset="0" stop-color="#69e3ff"/><stop offset="1" stop-color="#69bbed"/></linearGradient><path d="M275.5 328.5L228 301.1l18.6-10.8L361.3 276l21.4 12.4-71.5 41.3 16.2 9.4-16.9 9.7-16.3-9.4-22.6 13-18.9-10.9 22.8-13zm61.7-35.7l-.3-.2-72.7 9.7 28.2 16.3 44.8-25.8z" fill="url(#SVGID_21_)"/><linearGradient id="SVGID_22_" gradientUnits="userSpaceOnUse" x1="-4611.75" y1="1041.16" x2="-4618.17" y2="1020.29" gradientTransform="rotate(-180 -2215.03 590.98)"><stop offset=".42" stop-color="#f1d6d3"/><stop offset=".65" stop-color="#eec6d9"/><stop offset="1" stop-color="#f4eccb"/></linearGradient><path d="M198 245.1c4.6 1.8 9.8-2.9 10.4-4.7.2-.6.2-2 .1-3.6-.2-2.9-.5-6.4 0-7.6 0 0-.9 0-2.3.1-4 .2-10-2.7-10.3.5 0 .1-1.6 5.4-1.6 5.4-.4 4.3-.8 8.1 3.7 9.9z" fill="url(#SVGID_22_)"/><linearGradient id="SVGID_23_" gradientUnits="userSpaceOnUse" x1="-4623.91" y1="1035.44" x2="-4600.76" y2="960.89" gradientTransform="rotate(-180 -2215.03 590.98)"><stop offset="0" stop-color="#eec6d9"/><stop offset=".42" stop-color="#785757"/><stop offset="1" stop-color="#f4eccb"/></linearGradient><path d="M195.9 229.8c3.8-1 12.6-.5 12.6-.5-1 2.4 0 7.6 0 7.6v.1c-.3.6-.8 1.2-1.3 1.6-.9.7-1.8 1.2-2.9 1.6-.2.1-.5.1-.8 0-.1-.1-.9.4-.9.3.1-.1.2-.2.3-.4.7-1-.2-2.3-1.4-2.3-2.2 0-4.8-2.9-5.5-5.8l-.1-2.2z" fill="url(#SVGID_23_)"/><linearGradient id="SVGID_24_" gradientUnits="userSpaceOnUse" x1="188.63" y1="265.49" x2="202.82" y2="224.86" gradientTransform="matrix(1 0 0 -1 0 502)"><stop offset="0" stop-color="#c3caf4"/><stop offset="1" stop-color="#1a7fc3"/></linearGradient><path d="M222.3 252.8c-.5-3.3-1.3-6.7-3-9.4l-.6-.9c-.6-.8-1.3-1.6-2.1-2.2a22.8 22.8 0 00-6-3.1c-2.1-.9-2.4-.9-4.1.3l-5.6 4c-1.7.9-3.8.5-5-1.1-.3-.4-.6-.9-.7-1.4l-.4-1.4-.5-1.7s.1-1-.4-1h-.2c-4.6 1.4-7.9 3.1-11.4 4.5-4 1.6-5.7 6.3-7.1 10-1.8 4.7-3.6 9.4-5.6 14-.1.2-.2.5-.2.7.1.2.2.5.4.6l3.3 4c1.2 1.5 2.4 2.9 3.7 4.2.5.5 1.1.9 1.7 1.2.7.2 1.5 0 1.9-.6.4-.7.2-1.6.6-2.2.1.7.1 3.1.1 6.3v1.1c14.3 1.2 28.6-2.3 40.8-9.9l.1-.8c.6-5.1 1.1-10.2.3-15.2zm-40.4 4.2l-.2 5.1c0-1.2 0-2.5.2-5.1zm-.3 6.2c0 1.1-.1 2.3-.2 4.3l.2-4.3z" fill="url(#SVGID_24_)"/><linearGradient id="SVGID_25_" gradientUnits="userSpaceOnUse" x1="170.02" y1="229.32" x2="181.24" y2="229.32" gradientTransform="matrix(1 0 0 -1 0 502)"><stop offset="0" stop-color="#eec6d9"/><stop offset=".42" stop-color="#f1d6d3"/><stop offset="1" stop-color="#f4eccb"/></linearGradient><path d="M171.6 266.8L170 270s.5 4 .8 5.2c.5 1.9 8 3.3 8 3.3l2.4-8.2c0 .1-4.5 1.8-9.6-3.5z" fill="url(#SVGID_25_)"/><path class="st26" d="M213.5 272.7c-2.7 1.1-5.4 2.1-8.3 3-3.6.9-8.1 1.9-12.6 2.8l-3.6.3c-1.3.1-2.7.1-4 .1-4.7 0-9.4-1-13.7-3.1l1.8-4.8 7.4 2.4s20.7-1.9 25-2.2c4.3-.3 8-16.2 8-16.2v17.7z"/><path d="M213.5 272.7v.9s-3.4.9-8.3 2c2.8-.8 5.6-1.7 8.3-2.9z" fill="#0c4466"/><linearGradient id="SVGID_26_" gradientUnits="userSpaceOnUse" x1="313.24" y1="344.51" x2="312.29" y2="342.99" gradientTransform="scale(1 -1) rotate(13.19 2898.82 -531.48)"><stop offset="0" stop-color="#c3caf4"/><stop offset="1" stop-color="#1a7fc3"/></linearGradient><path d="M181.2 270.4c0-.7.1-1.3.1-1.9l-.1 1.9z" fill="url(#SVGID_26_)"/><linearGradient id="SVGID_27_" gradientUnits="userSpaceOnUse" x1="316.97" y1="355.81" x2="314.1" y2="351.2" gradientTransform="scale(1 -1) rotate(13.19 2898.82 -531.48)"><stop offset="0" stop-color="#c3caf4"/><stop offset="1" stop-color="#1a7fc3"/></linearGradient><path d="M181.9 256.5l-.3 5.6c.1-1.3.1-2.7.3-5.6z" fill="url(#SVGID_27_)"/><linearGradient id="SVGID_28_" gradientUnits="userSpaceOnUse" x1="-4627.76" y1="1014.83" x2="-4612.94" y2="1014.83" gradientTransform="rotate(-180 -2215.03 590.98)"><stop offset="0" stop-color="#c3caf4"/><stop offset="1" stop-color="#1a7fc3"/></linearGradient><path d="M195.2 238.9c1.6 6.8 9.2 2.8 12.8.4 1.2-.8 2-1.5 2-1.5l-1.7-1.8-1.7 1.4c-8.3 6.5-11.2 1.8-11.4 1.5z" fill="url(#SVGID_28_)"/><linearGradient id="SVGID_29_" gradientUnits="userSpaceOnUse" x1="445.66" y1="1507.03" x2="470.6" y2="1507.03" gradientTransform="scale(1 -1) rotate(14.89 6939.7 -339.7)"><stop offset="0" stop-color="#eec6d9"/><stop offset=".42" stop-color="#f1d6d3"/><stop offset="1" stop-color="#f4eccb"/></linearGradient><path d="M209.7 210.5c.6.4 1 1 1.2 1.6.8 1.9 1.1 3.8 1.7 5.8.2.8 1 1.5 1.6 3.2s1.5 11-3.3 12.9c-4.8 1.9-8.9-.2-10.5-1.1-1.7-.9-6.1-4.3-6.1-4.3s-4.2-4.3-5.6-7c-1.4-2.7-1.8-8.9.3-10.1l2.1-1.2c-.1-1 .6-2 1.3-2.6 2.2-1.9 4.3-1.5 6.9-.7 2.2.7 4.5 1.1 6.7 1.8 1.4.5 2.7.9 3.7 1.7z" fill="url(#SVGID_29_)"/><path d="M211.1 210.5c-.4.1-.8.2-1.1.3-.7.3-1.3 1.1-2.1 1.1-7.2.5-7.3 4-7.8 4.4-.9.7-2.4.1-3.4.8-.8.5-.9 1.7-.6 2.6.3.9.8 1.7 1 2.6.1.3.6 1.1.5 1.4 0 .1-.8.1-.9.1l-.8-.9c-.3-.4-.6-.7-.9-1-.6-.5-1.1-.9-1.6-.8-.3.1-.5.2-.6.5-.8 1-.3 2.5.6 3.4.9.9 2.1 1.6 2.8 2.6.5.7.7 1.5.7 2.3-.7.5-1.7 0-2.4-.6-3.4-2.7-3.2-5.4-6.9-7.6 0 0-.6 0-.7-.1-.3-.1-.6-.3-.9-.6-.5-.5-1-1-1.2-1.7-.7-1.6-.7-3.4.1-5 .9-1.9 2.7-3.2 4.5-4.5s3.5-2.7 4.2-4.7c.7-2.1.7-4 2.5-5.6 1.8-1.6 4.3-2.3 6.6-2.8 1.8-.4 3.8-.8 5.4.2.7.5 1.3 1.2 1.7 2 .7 1.3 1 2.8.9 4.3 1.3.5 2.6 1.3 3.2 2.6.6 1.3.3 3-.8 3.8-.9.6-1.4.8-2 .9z" fill="#cf7caf"/><path d="M196.8 230.1c-.7.5-1.7 0-2.4-.6-3.4-2.7-3.2-5.4-6.9-7.6-.2.1-.4.1-.5.1-.1-.2-.1-.4-.1-.5.1-.2.3-.3.5-.4 1.9-.7 4.6-1.6 6 .3-.3.1-.5.2-.6.5-.8 1-.3 2.5.6 3.4s2.1 1.6 2.8 2.6c.4.6.6 1.4.6 2.2z" fill="#a54786"/><linearGradient id="SVGID_30_" gradientUnits="userSpaceOnUse" x1="161.1" y1="228.8" x2="173.85" y2="228.8" gradientTransform="matrix(1 0 0 -1 0 502)"><stop offset="0" stop-color="#eec6d9"/><stop offset=".42" stop-color="#f1d6d3"/><stop offset="1" stop-color="#f4eccb"/></linearGradient><path d="M162.7 269.4c-.4.4-.7.9-.9 1.3-.3.5-.6 1.1-.6 1.7 0 .4.1.7.4.9.4.2.8.2 1.1 0 .3-.2.6-.5.9-.8.4-.5.8-1.1 1.2-1.7-.5 1-1.1 2-1.1 3.1-.1.4 0 .9.3 1.2.3.4.8.5 1.2.3.3-.2.5-.4.6-.8.4-.9.8-1.8 1.6-2.3-.5.6-.9 1.3-1.1 2.1-.3.8-.2 1.6.3 2.2.1.2.4.4.6.4.2 0 .4-.1.5-.2 1-.6 1.2-2 2.2-2.7-.4.7-.6 1.4-.8 2.2-.2.5-.2 1.1 0 1.6.2.6.8.9 1.4.8.7-.2.9-1.1 1.2-1.7.4-.7 1.1-1.2 1.6-1.8 1.1-1.2 1.2-3.2 0-4.3-.8-.8-1.9-1.1-2.8-1.7-.6-.4-1-1-1.7-1.4-2.1-.9-4.9.2-6.1 1.6z" fill="url(#SVGID_30_)"/><linearGradient id="SVGID_31_" gradientUnits="userSpaceOnUse" x1="720.16" y1="438.73" x2="732.91" y2="438.73" gradientTransform="scale(1 -1) rotate(44.99 1332.35 -529.22)"><stop offset="0" stop-color="#eec6d9"/><stop offset=".42" stop-color="#f1d6d3"/><stop offset="1" stop-color="#f4eccb"/></linearGradient><path d="M213.5 273.7c0 .5.1 1.1.3 1.6.1.6.3 1.1.7 1.6.2.3.6.4 1 .4.4-.1.7-.4.8-.8.1-.4.1-.8.1-1.2-.1-.7-.2-1.4-.4-2.1.3 1.1.7 2.2 1.4 3 .3.3.6.6 1.1.7.5.1.9-.2 1.1-.6.1-.3 0-.7-.1-.9-.3-.9-.7-1.8-.5-2.8.1.8.3 1.6.7 2.3.4.7 1 1.2 1.8 1.4.3.1.5 0 .8-.1.1-.1.2-.3.2-.5.3-1.2-.6-2.3-.3-3.4.2.7.6 1.5.9 2.1.2.5.6.9 1.1 1.2.5.2 1.2.1 1.5-.4.4-.7-.1-1.4-.4-2.1-.2-.8-.1-1.6-.1-2.4-.1-1.6-1.4-3.1-3-3.1-1.1 0-2.1.6-3.2.7-.7.1-1.5 0-2.2.2-2.2.5-3.4 3.3-3.3 5.2z" fill="url(#SVGID_31_)"/><path class="st26" d="M181.2 270.4l.5-21.3-6.1 20.4s1.5 1.3 5.6.9z"/><linearGradient id="SVGID_32_" gradientUnits="userSpaceOnUse" x1="174.35" y1="231.02" x2="174.65" y2="224.34" gradientTransform="matrix(1 0 0 -1 0 502)"><stop offset="0" stop-color="#eec6d9"/><stop offset=".42" stop-color="#f1d6d3"/><stop offset="1" stop-color="#f4eccb"/></linearGradient><path d="M173 275.4s.7 1.9 2.6 2.4-1.8-5.4-1.8-5.4l-.8 3z" fill="url(#SVGID_32_)"/><linearGradient id="SVGID_33_" gradientUnits="userSpaceOnUse" x1="211.89" y1="231.65" x2="212.05" y2="227.94" gradientTransform="matrix(1 0 0 -1 0 502)"><stop offset="0" stop-color="#eec6d9"/><stop offset=".42" stop-color="#f1d6d3"/><stop offset="1" stop-color="#f4eccb"/></linearGradient><path d="M213.7 272s-1.8-1.4-3-.6c-1.2.8.7 2.8.7 2.8l2.1-.5c-.1-.6 0-1.2.2-1.7z" fill="url(#SVGID_33_)"/><linearGradient id="SVGID_34_" gradientUnits="userSpaceOnUse" x1="215.31" y1="327.24" x2="238.42" y2="327.24" gradientTransform="matrix(1 0 0 -1 0 502)"><stop offset="0" stop-color="#69e3ff"/><stop offset="1" stop-color="#69bbed"/></linearGradient><path d="M225.2 182.9c-1.1 0-2.1-.9-2.1-2.1v-.8c0-.7 0-1.4.1-2 .1-.5.2-1 .5-1.5.2-.5.6-.9.9-1.3.4-.4.8-.9 1.4-1.5l4.2-4.2a5 5 0 001.4-3.5c0-1.3-.5-2.5-1.4-3.4-.9-.9-2.2-1.4-3.5-1.3-1.4 0-2.8.5-3.7 1.5-.4.5-.8 1-1.1 1.5a3.47 3.47 0 01-6.6-1.7c0-.4.1-.8.3-1.2v-.1c.7-1.3 1.6-2.5 2.7-3.4 1.1-1 2.4-1.7 3.8-2.1 1.5-.5 3.2-.8 4.8-.7 1.5 0 3.1.2 4.5.7 1.3.4 2.6 1.1 3.6 2 1 .9 1.9 2 2.4 3.3.6 1.4.9 3 .9 4.5 0 1.1-.1 2.1-.5 3.1-.3.9-.8 1.7-1.3 2.5s-1.2 1.5-1.8 2.2c-.7.7-1.5 1.4-2.3 2.2-.5.5-.9.9-1.3 1.2-.3.3-.6.7-.9 1.1-.2.4-.4.8-.5 1.3-.1.6-.2 1.2-.2 1.8 0 1.1-.9 2.1-2.1 2.1l-2.2-.2zm-3.2 7.6c0-1.1.4-2.2 1.3-3 .8-.8 1.9-1.3 3.1-1.2 1.1 0 2.2.4 3 1.2.8.7 1.3 1.8 1.3 2.9 0 1.1-.4 2.2-1.3 3-.8.8-1.9 1.3-3.1 1.3a4.2 4.2 0 01-4-2.5c-.2-.6-.3-1.1-.3-1.7z" fill="url(#SVGID_34_)"/><linearGradient id="SVGID_35_" gradientUnits="userSpaceOnUse" x1="379.07" y1="396.91" x2="328.69" y2="311.23" gradientTransform="matrix(1 0 0 -1 0 502)"><stop offset="0" stop-color="#69e3ff"/><stop offset="1" stop-color="#69bbed"/></linearGradient><path d="M340.6 109c1.2-1.1 2.9-1.8 5.3-2.1 1.8-.2 3.6.1 5.4.4l8.8 1.4c2.1.3 4.2.7 6.1 1.5 3.9 1.8 6.6 5.5 7.1 9.8 2.5-.7 5.4.4 7.2 2.3 1.8 1.9 2.8 4.5 3.4 7 .7 2.6 1.1 5.2 1.1 7.9a91 91 0 01-.4 9.1l-.8 8.8c-.2 2.2-.4 4.6-1.6 6.5a8.68 8.68 0 01-6 3.8c-2.4.4-4.9.1-7.3-.6-.7-.2-1.5-.5-2-1-.4-.6-.7-1.3-.8-2l-3.4-16.4c-.3-1.5-.6-3-.4-4.5s1-2.9 2.4-3.5c-3.7 2.6-7 .2-10.5-1.6-3.6-1.9-7.9-3.9-10.6-7.1-4.1-4.8-8.1-15.2-3-19.7z" fill="url(#SVGID_35_)"/><linearGradient id="SVGID_36_" gradientUnits="userSpaceOnUse" x1="375.01" y1="331.85" x2="370.81" y2="334.43" gradientTransform="matrix(1 0 0 -1 0 502)"><stop offset="0" stop-color="#69e3ff"/><stop offset="1" stop-color="#69bbed"/></linearGradient><path d="M364.6 172.1a7 7 0 00-1.5 1.9c-.3.7-.3 1.6.2 2.3.6.7 1.6.9 2.6.9 4 .2 8.1-.7 11.3-3.1 3.2-2.3 5.5-6.2 5.3-10.1 0-1.5-.5-3-1.7-3.8-1-.6-2.2-.6-3.4-.5-3.1.3-7.5.9-9.6 3.4-.8 1-1.5 2.6-2 3.7-.7 2 .4 3.9-1.2 5.3z" fill="url(#SVGID_36_)"/><path class="st8" d="M348.4 206.2c-.3 2.4-.8 5.2-2.9 6.4-1.6 1-3.7.7-5.6.4-.9-.1-1.8-.4-2.6-.8-1.9-1.1-2.2-3.7-2.4-5.9-.5-5.9-.9-11.8-1.4-17.8-.2-3.1-.5-6.3-.1-9.4 0-.5.2-1 .5-1.3.4-.4 1-.4 1.6-.5 3-.1 8.2-1.1 11-.1 3.3 1.1 2.5 3.6 2.6 7.2.3 7.4 0 14.6-.7 21.8zM344.9 221.3c1.4 0 2.9.2 4 .9 2.1 1.4 2.6 4.1 2.9 6.6 1.3 9.5 2.6 19.2 1.8 28.7-.2 2.5-1 5.5-3.4 6.2-1.1.3-2.2 0-3.3.1-.9 0-1.7.2-2.6 0-1.7-.6-2.2-2.7-2.5-4.5-1-7.4-2.5-14.7-4.6-21.9-1-3.4-3.8-9.6-2-13.1 1.6-3 6.9-3 9.7-3zM324.5 175.4c.5.1.9.3 1.2.7.2.4.4.8.4 1.3 1 9.2-.9 18.5.4 27.6.2 1.6.4 3.5-1 4.4-.6.3-1.2.4-1.8.4-2.3.2-5 .1-6.4-1.7-.8-1-.9-2.3-1.1-3.5-.9-7.7-1.4-15.4-1.3-23.1 0-2.1-.1-6.1 1.6-7.6 1.5-1.5 6.1.9 8 1.5zM316.4 222.9c0-.5.2-1.1.5-1.5.6-1 1.9-1.2 3.1-1.4 1.2-.1 2.5-.2 3.4.6.3.3.6.7.7 1.1.7 1.6 1 3.4 1.1 5.2.8 7.8 1.3 15.7 1.3 23.6 0 .4 0 .8-.2 1.2-.2.4-.6.7-1 .8-2.1 1-5.8.8-7.3-1.4-1-1.5-.7-4.3-1-6-1.2-7.4-1.7-14.7-.6-22.2zM370.8 130.4c-1.1 2.7-3.2 4.8-5.9 5.9 1.9.4 3.3 2.2 3.8 4.1s.4 3.9.5 5.9c.1 3.5.7 6.9 1.8 10.2.5 1.5 1.1 3 1 4.6-.1 1.6-1.1 3.2-2.7 3.4-1.2.1-2.4-.7-3.1-1.8s-.9-2.3-1.1-3.6l-2-12.2c-.5-3.1-1-6.4-.4-9.5-1.2 1.7-3.8 1.3-5.7.6-5.9-2.2-11.3-5.7-15.7-10.3-2.4-2.5-4.5-5.6-4.7-9.1-.1-1.5.4-3.8 2.2-3.3 1.1.3 2.6 3.3 3.4 4.1 2.4 2.6 5.1 4.8 8.2 6.6 3 1.8 6.3 3.1 9.8 3.8 1.3.3 10.1 1.9 10.6.6z"/><linearGradient id="SVGID_37_" gradientUnits="userSpaceOnUse" x1="322.21" y1="362.84" x2="319.06" y2="382.36" gradientTransform="matrix(1 0 0 -1 0 502)"><stop offset="0" stop-color="#69e3ff"/><stop offset="1" stop-color="#69bbed"/></linearGradient><path d="M313.5 123.6c3.6.3 7.1.5 10.7.5 2 0 4.1 0 5.8-1.1 1.6 1.4 3.1 3 4.3 4.7-1 .7-1.9 1.6-2.6 2.5-.4.6-.8 1.2-1.3 1.7-.7.5-1.5 1-2.3 1.2l-12.5 4.6c-.7.3-1.5.5-2.1.1-.3-.2-.5-.4-.6-.7-2.3-3.4-5.2-7-6.5-10.9-1.9-5 4.5-2.8 7.1-2.6z" fill="url(#SVGID_37_)"/><path class="st47" d="M41.3 193.2l47.5 27.5-22.6 13 9.8 4.6 25.5-17.2-49.4-29 12.3-9.2-4.4-.4zM236.5 295.9l123.5-15 17.5 10.5 5.3-3-21.5-12.4-114.6 14.3z"/><g id="Logo-2"><g id="Group-2"><path id="Rectangle-4" class="st48" d="M316.3 131.6l.8.5c.1.1.2.2.2.3l-1.8 6.3c0 .1-.1.1-.2 0l-.8-.5c-.5-.3-.9-.9-.8-1.3l1.5-5.3c.1-.3.6-.3 1.1 0z"/><path id="Rectangle-5" class="st48" d="M320.1 131.4l.8.5c.1.1.2.2.2.3l-1.8 6.4c0 .1-.1.1-.2 0l-.8-.5c-.5-.3-.9-.9-.8-1.3l1.5-5.3c0-.4.5-.4 1.1-.1z"/><path id="Rectangle-6" class="st48" d="M323.9 131.2l.8.5c.1.1.2.2.2.3l-1.8 6.3c0 .1-.1.1-.2 0l-.8-.5c-.5-.3-.9-.9-.8-1.3l1.5-5.3c.1-.3.6-.3 1.1 0z"/></g></g><linearGradient id="SVGID_38_" gradientUnits="userSpaceOnUse" x1="320.05" y1="398.98" x2="318.11" y2="396.68" gradientTransform="matrix(1 0 0 -1 0 502)"><stop offset="0" stop-color="#eec6d9"/><stop offset=".42" stop-color="#f1d6d3"/><stop offset="1" stop-color="#f4eccb"/></linearGradient><path d="M320.2 103.4c.1.8.2 2.5-.7 2.9-.7.4-1.1-.3-1.4-.9-.3-.7-.5-2-.1-2.7.7-1.2 2-.3 2.2.7z" fill="url(#SVGID_38_)"/></svg>