<?xml version="1.0" encoding="utf-8"?>
<!-- Generator: Adobe Illustrator 24.0.1, SVG Export Plug-In . SVG Version: 6.00 Build 0)  -->
<svg version="1.1" id="Calque_1" xmlns="http://www.w3.org/2000/svg" xmlns:xlink="http://www.w3.org/1999/xlink" x="0px" y="0px"
	 viewBox="0 0 500 500" style="enable-background:new 0 0 500 500;" xml:space="preserve">
<style type="text/css">
	.st0{opacity:0.15;fill:url(#SVGID_1_);enable-background:new    ;}
	.st1{opacity:0.15;fill:url(#SVGID_2_);enable-background:new    ;}
	.st2{fill:url(#SVGID_3_);}
	.st3{fill:#1B76BC;}
	.st4{fill:url(#SVGID_4_);}
	.st5{fill:url(#SVGID_5_);}
	.st6{fill:url(#SVGID_6_);}
	.st7{fill:url(#SVGID_7_);}
	.st8{fill:url(#SVGID_8_);}
	.st9{opacity:0.14;fill:#1B76BC;enable-background:new    ;}
	.st10{fill:url(#SVGID_9_);}
	.st11{fill:url(#SVGID_10_);}
	.st12{opacity:0.44;fill:#FFFFFF;enable-background:new    ;}
	.st13{opacity:0.32;fill:#1B76BC;enable-background:new    ;}
	.st14{fill:url(#SVGID_11_);}
	.st15{fill:url(#SVGID_12_);}
	.st16{fill:url(#SVGID_13_);}
	.st17{fill:#433005;}
	.st18{fill:url(#SVGID_14_);}
	.st19{fill:url(#SVGID_15_);}
	.st20{fill:url(#SVGID_16_);}
	.st21{fill:url(#SVGID_17_);}
	.st22{fill:url(#SVGID_18_);}
	.st23{fill:url(#SVGID_19_);}
	.st24{fill:url(#SVGID_20_);}
	.st25{fill:url(#SVGID_21_);}
	.st26{opacity:6.000000e-02;fill:#FFFFFF;enable-background:new    ;}
	.st27{opacity:0.38;fill:#0C4466;enable-background:new    ;}
	.st28{fill:url(#SVGID_22_);}
	.st29{fill:url(#SVGID_23_);}
	.st30{fill:url(#SVGID_24_);}
	.st31{fill:url(#SVGID_25_);}
	.st32{fill:url(#SVGID_26_);}
	.st33{fill:url(#SVGID_27_);}
	.st34{fill:url(#SVGID_28_);}
	.st35{fill:#0C4466;}
	.st36{fill:url(#SVGID_29_);}
	.st37{fill:url(#SVGID_30_);}
	.st38{fill:url(#SVGID_31_);}
	.st39{fill:url(#SVGID_32_);}
	.st40{fill:#CF7CAF;}
	.st41{fill:#A54786;}
	.st42{fill:url(#SVGID_33_);}
	.st43{fill:url(#SVGID_34_);}
	.st44{fill:url(#SVGID_35_);}
	.st45{fill:url(#SVGID_36_);}
	.st46{fill:url(#SVGID_37_);}
	.st47{fill:url(#SVGID_38_);}
	.st48{fill:url(#SVGID_39_);}
	.st49{fill:url(#SVGID_40_);}
	.st50{fill:url(#SVGID_41_);}
	.st51{opacity:0.24;fill:#FFFFFF;enable-background:new    ;}
	.st52{fill:#FFFFFF;}
	.st53{fill:url(#SVGID_42_);}
</style>
<linearGradient id="SVGID_1_" gradientUnits="userSpaceOnUse" x1="126.3588" y1="-12.7192" x2="216.7087" y2="224.7718" gradientTransform="matrix(1 0 0 -1 0 502)">
	<stop  offset="0" style="stop-color:#FFFFFF;stop-opacity:0"/>
	<stop  offset="1" style="stop-color:#2483C4"/>
</linearGradient>
<polygon class="st0" points="412.9,351.4 295.9,430.3 295.1,430.9 234.2,430.9 206.4,413.6 236.3,396.2 105.1,319 61.2,319 
	33.4,301.7 54.8,289.3 0,257 41.3,241.9 382.8,337.1 "/>
<linearGradient id="SVGID_2_" gradientUnits="userSpaceOnUse" x1="420.9712" y1="300.5786" x2="398.3656" y2="208.2216" gradientTransform="matrix(1 0 0 -1 0 502)">
	<stop  offset="0" style="stop-color:#FFFFFF;stop-opacity:0"/>
	<stop  offset="1" style="stop-color:#2483C4"/>
</linearGradient>
<path class="st1" d="M500,259.7c-14.7,8-32,10-48.7,9.6c-4.9-0.1-10-0.4-14.6,1.3c-5.1,1.9-9,6-14,8.1c-4.8,2-10.2,1.9-15.4,2
	c-9.4,0.1-18.7,0.5-28,1.3c-3.1,0.3-6.3,0.6-9.1,1.8c-6.7,2.8-11.5,10.3-18.8,10.6c-2,0.1-3.9-0.4-5.9,0c-3.3,0.6-5.8,3.6-9.1,4.2
	c-2.5,0.4-5-0.6-7.4-1.2c-3.4-0.8-7-0.8-10.4-1.3c-3.5-0.5-7-1.6-9.4-4.2c-2.3-2.6-2.9-7-0.5-9.6c1.3-1.3,3.1-1.9,4.8-2.5l37.5-12.5
	c5-1.7,10-3.3,15.3-3.8c6.1-0.6,12.3,0.4,18.5-0.1c14.1-1.1,27.4-4.9,41.8-4.1c14.8,0.8,29.5,0.3,44.4,0.2c4.9,0,9.9,0,14.8,0
	C489,259.6,497.2,261.2,500,259.7z"/>
<linearGradient id="SVGID_3_" gradientUnits="userSpaceOnUse" x1="426.8385" y1="398.2899" x2="492.3922" y2="398.2899" gradientTransform="matrix(1 0 0 -1 0 502)">
	<stop  offset="0" style="stop-color:#69E3FF"/>
	<stop  offset="1" style="stop-color:#69BBED"/>
</linearGradient>
<polygon class="st2" points="429.7,90.1 482.9,69.2 475.6,95 492.4,109.7 426.8,138.2 "/>
<path class="st3" d="M312.5,277.6c-1.6,1.5-3.5,2.8-4.9,4.5c-1.4,1.7-2.3,4.1-1.5,6.2c0.7,1.9,2.8,3.2,4.8,3.4
	c2.1,0.3,4.1-0.4,6.1-1.1c2.9-1.2,5.7-2.8,8.1-4.9c1.2-1,2.3-2.1,3.7-2.8c0.7-0.3,1.3-0.6,1.9-1c0.6-0.4,1-1,1.1-1.7
	c0-0.4-0.1-0.8-0.2-1.1l-1.7-5.8c-0.1-0.5-0.4-0.8-0.9-0.9c-3.1-0.8-7.3-2.3-10.5-1.5c-1.3,0.3-1.9,1.7-2.6,2.7
	C314.9,275,313.7,276.4,312.5,277.6z"/>
<path class="st3" d="M332.4,287.5c-1.9,1.8-4.1,3.3-5.7,5.3c-1.6,2-2.7,4.8-1.8,7.2c0.8,2.3,3.2,3.7,5.7,4c2.4,0.3,4.8-0.4,7.1-1.3
	c3.5-1.4,6.7-3.3,9.5-5.7c1.4-1.1,2.7-2.4,4.3-3.3c0.8-0.3,1.5-0.7,2.2-1.1c0.7-0.4,1.2-1.2,1.3-2c0-0.5-0.1-0.9-0.2-1.4l-2-6.7
	c0-0.2-0.1-0.4-0.3-0.6c-0.2-0.2-0.5-0.3-0.8-0.4c-3.6-0.9-8.6-2.7-12.3-1.8c-1.5,0.4-2.2,2-3,3.2
	C335.3,284.5,333.9,286.1,332.4,287.5z"/>
<linearGradient id="SVGID_4_" gradientUnits="userSpaceOnUse" x1="375.6247" y1="392.8369" x2="359.2621" y2="375.6141" gradientTransform="matrix(1 0 0 -1 0 502)">
	<stop  offset="0" style="stop-color:#69E3FF"/>
	<stop  offset="1" style="stop-color:#69BBED"/>
</linearGradient>
<path class="st4" d="M340.4,101.6c2.6-0.2,5.2,0.6,7.6,1.6c4.2,1.7,8.1,3.8,11.8,6.4c2.7,1.9,5.3,4,6.7,6.9c1,2.1,1.4,4.5,1.7,6.8
	l2.6,19.4c1.2,9.1,1.9,19.9-5,26c-2.4,2.1-5.7,3.3-8.8,2.4c-3-1-5-3.8-6.5-6.6c-6.1-11.3-8.6-24.1-12.9-36.2
	c-1.9-5.2-6.8-11.3-7.8-16.5S335.5,101.9,340.4,101.6z"/>
<polygon class="st3" points="364.9,122.5 363,116.4 352.9,119.5 330.2,108.7 329.9,111.8 351.6,125.4 "/>
<linearGradient id="SVGID_5_" gradientUnits="userSpaceOnUse" x1="312.4207" y1="272.6992" x2="337.6661" y2="272.6992" gradientTransform="matrix(1 0 0 -1 0 502)">
	<stop  offset="0" style="stop-color:#69E3FF"/>
	<stop  offset="1" style="stop-color:#69BBED"/>
</linearGradient>
<path class="st5" d="M315.1,184.7c-1.6,1.1-1.5,3.3-1.5,6.8c0.1,6.6,0.1,13.3-0.6,19.9c-0.6,5.3-1.2,11.6,2.7,15.2
	c-3.7,3.7-3.6,9.6-3.2,14.8c0.6,9.1,1.2,18.2,1.7,27.3c0.1,1.4,0.3,3,1.4,3.8c0.6,0.5,1.5,0.6,2.3,0.7l9.8,1.3
	c2.6,0.3,5.6,0.5,7.3-1.5c1.1-1.3,1.1-3.1,1.2-4.8c0.3-8.6,0.4-17.2,0.5-25.9c0-3.4-1.6-5.8-1.9-8.9c-0.2-2,0.2-4.3,0.3-6.3l1-17.8
	l1.3-24.5c0,0.1-17.2-0.8-18.6-0.9C317.2,183.9,315.9,184.1,315.1,184.7z"/>
<linearGradient id="SVGID_6_" gradientUnits="userSpaceOnUse" x1="330.051" y1="270.2674" x2="363.8368" y2="270.2674" gradientTransform="matrix(1 0 0 -1 0 502)">
	<stop  offset="0" style="stop-color:#69E3FF"/>
	<stop  offset="1" style="stop-color:#69BBED"/>
</linearGradient>
<path class="st6" d="M361.7,175.1c-0.3,3.9,1.3,7.2,1.8,11.1c0.6,4.3,0.4,8.6,0.1,12.9c-0.5,11.2-1.5,23.4-9.1,31.6
	c2.5,1.9,4.8,4.4,5.6,7.5c0.5,1.9,0.5,3.9,0.4,5.9c-0.2,6.5-0.8,13-1.6,19.5c-0.8,5.5-0.9,14.2-3.6,19.2c-3.2,5.8-15.9,8.8-19.1,1.3
	c-2-4.7-0.9-12.3-1.4-17.5c-0.7-6.9-1.5-13.7-2.6-20.6c-0.5-3.1-1-6.2-0.4-9.3s2.7-6,5.7-6.8c-2.5-0.7-4.3-3-5.2-5.4
	c-0.9-2.4-1-5.1-1.1-7.7c-0.3-9.9-2.1-21.1-0.8-30.9c5.6-1.8,11.2-3.4,16.8-5.1C351.5,179.3,358.4,178.2,361.7,175.1z"/>
<linearGradient id="SVGID_7_" gradientUnits="userSpaceOnUse" x1="276.4112" y1="350.1351" x2="317.1951" y2="350.1351" gradientTransform="matrix(1 0 0 -1 0 502)">
	<stop  offset="0" style="stop-color:#69E3FF"/>
	<stop  offset="1" style="stop-color:#69BBED"/>
</linearGradient>
<path class="st7" d="M296.7,141.9c-0.5,2-0.7,4,0.2,5.7c-2.4-0.3-4.8,1-6.5,2.8c-1.7,1.8-2.9,4-4.3,5.9c-2.3,3.1-5.3,5.5-8,8.2
	c-0.8,0.8-1.5,1.6-1.7,2.7c-0.1,1,0.2,2,0.6,2.9c0.8,1.9,1.6,3.8,2.9,5.4c1.3,1.6,3.2,2.8,5.3,2.8c1.2,0,2.4-0.4,3.6-0.8
	c3.4-1.3,7-2.6,9.4-5.4c1.8-2.1,2.8-4.7,2.8-7.4c1.9,1,4.2-0.2,5.9-1.5c2.4-1.7,4.7-3.5,6.6-5.8c1.8-2.1,4-5.9,3.7-8.8
	c-0.3-3.1-3.4-5.5-3.4-8.8c0-2.2-0.5-4.3-1.1-6.4c-0.8-2.7-3.2-8.2-6.6-8.2c-2.5,0-3.4,2.7-4.3,4.5c-1.5,3.1-2.9,6.3-4.1,9.5
	C297.2,140.1,296.9,141,296.7,141.9z"/>
<linearGradient id="SVGID_8_" gradientUnits="userSpaceOnUse" x1="259.2461" y1="320.9144" x2="283.8568" y2="320.9144" gradientTransform="matrix(1 0 0 -1 0 502)">
	<stop  offset="0" style="stop-color:#69E3FF"/>
	<stop  offset="1" style="stop-color:#69BBED"/>
</linearGradient>
<path class="st8" d="M266.7,171.5l-0.6,0.3c-0.8,0.3-1.5,0.7-2,1.3c-0.5,0.6-0.7,1.6-0.1,2.2c0.2,0.2,0.5,0.4,0.5,0.7
	c0,0.2-0.1,0.4-0.3,0.6c-1.3,1.5-2.7,2.9-3.7,4.6s-1.5,3.8-1,5.7c0.4,1.5,1.6,2.8,2.7,3.9c2.2,2,5,3.6,7.9,3.1
	c1-0.2,2.1-0.8,2.4-1.8c0.3-0.9,0-1.8,0.2-2.7c0.3-1.9,2.5-2.9,4.3-3.7c2.4-1.1,4.9-2.7,6-5.1c2-4.4,0.7-11.6-4.9-12.3
	C274.2,167.8,270.2,169.9,266.7,171.5z"/>
<path class="st9" d="M305.9,144.5c-0.8,3.7-3,7-6,9.2c-0.8,0.6-1.7,1.1-2,2.1c-0.3,0.9,0.1,1.9,0,2.9c-0.1,1.6-1.4,2.8-2.5,3.9
	c-3.6,3.3-7.3,6.7-11.9,8.4c-4.8,1.9-10.4,1.9-14.5,5c-0.5,0.4-1,0.9-0.9,1.5c0,0.5,0.5,0.9,0.5,1.4c0.2,1.3-1.7,1.6-2.8,2.3
	c-1.7,1.1-1.7,3.7-0.5,5.3c1.2,1.6,3.2,2.4,5,3.1c0.4,0.2,0.9,0.2,1.3,0.1c0.6-0.3,0.7-1.1,0.9-1.8c1-3,5.5-2.7,7.6-5
	c0.9-0.9,1.3-2.2,2.3-3.1c0.8-0.6,1.8-0.9,2.7-1.2c5-1.4,10.4-3.8,12.1-8.7c0.4-1.1,0.6-2.4,1.3-3.4c1.8-2.7,6-2.3,9-3.8
	c3.2-1.6,4.7-5.5,4.4-9.1c-0.3-3.6-2.1-6.8-4.1-9.7c-1.5,0.1-2.8,0.9-3.6,2.2L305.9,144.5z"/>
<linearGradient id="SVGID_9_" gradientUnits="userSpaceOnUse" x1="304.7115" y1="352.4638" x2="361.642" y2="352.4638" gradientTransform="matrix(1 0 0 -1 0 502)">
	<stop  offset="0" style="stop-color:#69E3FF"/>
	<stop  offset="1" style="stop-color:#69BBED"/>
</linearGradient>
<path class="st10" d="M332,113c8.4,4.4,17.4,9.4,21.3,18.1c3.5,7.6,2.2,16.5,3.1,24.8c0.5,4.5,1.7,8.9,3.5,13.1
	c0.8,1.9,1.8,3.9,1.7,6c-0.1,2.7-2,5-3.8,7.1c-2.1,2.4-4.3,4.9-7.3,6.2c-2.1,0.9-4.5,1-6.8,1.1c-10,0.3-20.4-0.9-29.2-5.7
	c-0.4-0.2-0.7-0.4-0.9-0.7c-0.6-0.8-0.4-1.9-0.1-2.9c1.8-6.6,2.8-13.7,0.7-20.2c-1.4-4.4-4.1-8.3-6-12.5c-1.7-4-2.9-8.2-3.3-12.5
	c-0.7-6.4,0.2-13.4,4.6-18.2c2.8-3,7.2-5.3,11-6.7C324.6,108.6,328.5,111.1,332,113z"/>
<linearGradient id="SVGID_10_" gradientUnits="userSpaceOnUse" x1="363.7192" y1="345.3811" x2="336.8088" y2="341.9366" gradientTransform="matrix(1 0 0 -1 0 502)">
	<stop  offset="0" style="stop-color:#69E3FF"/>
	<stop  offset="1" style="stop-color:#69BBED"/>
</linearGradient>
<path class="st11" d="M327.7,135.7c2.6,1.2,5.5,2.8,6,5.6c0.6,2.8-1.5,5.3-3.1,7.6c-2.7,3.9-4.7,8.6-4.5,13.3
	c0.1,3.1,0.9,6.6-1.2,8.8c-1,1-2.5,1.9-2.1,3.2c0.2,0.5,0.6,0.9,1,1.2l10,7.7c3,2.3,6.1,4.7,9.8,5.5c1.5,0.3,3,0.4,4.5,0.2
	c1.2-0.1,2.3-0.5,3.2-1.2c2.3-1.7,2.4-5,2.2-7.9c-0.6-6.3-2.3-12.3-3.2-18.6c-0.8-5.9-0.7-11.9-2-17.8c-1-4.4-3.3-11.8-8-13.6
	c-2.1-0.8-4,0-5.8,1.1C333.6,131.6,328.7,136.2,327.7,135.7z"/>
<circle class="st12" cx="355.1" cy="163.3" r="22.7"/>
<circle class="st12" cx="354" cy="163.3" r="18.6"/>
<path class="st13" d="M366.2,175.1c0,0-14.2,8.6-11.2,10.9c3,2.2,17.8-4.2,21.1-9.4C379.4,171.4,366.2,175.1,366.2,175.1z"/>
<path class="st13" d="M365.3,177.2c0,0-9.3,5.7-7.4,7.2c2,1.5,11.8-2.8,13.9-6.2S365.3,177.2,365.3,177.2z"/>
<circle class="st12" cx="346.1" cy="154.8" r="6.8"/>
<circle class="st12" cx="342" cy="167.1" r="3.7"/>
<linearGradient id="SVGID_11_" gradientUnits="userSpaceOnUse" x1="318.2922" y1="377.981" x2="338.8181" y2="350.566" gradientTransform="matrix(1 0 0 -1 0 502)">
	<stop  offset="0" style="stop-color:#69E3FF"/>
	<stop  offset="1" style="stop-color:#69BBED"/>
</linearGradient>
<path class="st14" d="M324.2,112.5c0,0,8.1-2.8,15.1,8.6c3.1,5.1-10.9,18.6-18.6,17s-24.2-3-21.4-12.7s8.2-11.9,8.2-11.9
	L324.2,112.5z"/>
<path class="st3" d="M323.4,109.6c0,0,9.9,2.1,11.7,7.8c1.8,5.7-7.5,19.5-15.2,17.8c-7.7-1.6-23.1-1.9-20.3-11.6s7.1-13,7.1-13
	L323.4,109.6z"/>
<linearGradient id="SVGID_12_" gradientUnits="userSpaceOnUse" x1="318.9102" y1="378.3555" x2="329.6186" y2="378.8907" gradientTransform="matrix(1 0 0 -1 0 502)">
	<stop  offset="0" style="stop-color:#EEC6D9"/>
	<stop  offset="0.42" style="stop-color:#F1D6D3"/>
	<stop  offset="1" style="stop-color:#F4ECCB"/>
</linearGradient>
<path class="st15" d="M321.1,130.4c2.1-1.2,3.5-3.3,3.8-5.6c0.3-2.4-0.5-4.8-2-6.6c-0.9-1-2.1-1.9-3.4-1.8s-2.3,1.3-3.1,2.4
	c-1.5,2.2-3.5,5.9-2.1,8.6C315.4,129.7,318.7,131.7,321.1,130.4z"/>
<linearGradient id="SVGID_13_" gradientUnits="userSpaceOnUse" x1="297.8898" y1="380.9026" x2="322.6537" y2="380.9026" gradientTransform="matrix(1 0 0 -1 0 502)">
	<stop  offset="0" style="stop-color:#EEC6D9"/>
	<stop  offset="0.42" style="stop-color:#F1D6D3"/>
	<stop  offset="1" style="stop-color:#F4ECCB"/>
</linearGradient>
<path class="st16" d="M300.7,126.3c-0.1,0.6-0.1,1.2-0.1,1.8c0,0.6,0.3,1.1,0.8,1.5c0.5,0.3,1.1,0.1,1.7,0.2c1,0.1,1.9,0.8,2.7,1.4
	c1.2,0.9,2.6,1.6,4,1.3c0.6-0.2,1.1-0.4,1.6-0.8c3.4-2.2,6.1-5.4,7.5-9.1c0.1-0.4,0.3-0.8,0.6-1.1c0.2-0.1,0.4-0.3,0.7-0.4
	c0.9-0.5,1.4-1.4,1.8-2.3c0.5-1,0.7-2.1,0.6-3.1c-0.1-1.1-0.7-2.1-1.7-2.6c-1-0.5-2.3-0.2-2.8,0.8c-0.7-1.6-1.9-2.8-3.5-3.4
	c-1.6-0.6-3.2-0.9-4.9-0.9c-4,0-8.1,1-11,3.7c-1.5,1.4-0.4,4.6,0.2,6.3C299.7,121.8,300.8,124,300.7,126.3z"/>
<path class="st17" d="M293.3,106.8c-0.7,2,0.3,4.2,1.5,6.1c0.8,1.2,1.6,2.5,3,3c1.4,0.6,3.1,0.2,4.6,0.7c0.9,0.3,1.6,0.9,2.5,1.3
	c1.1,0.5,2.4,0.6,3.6,0.7c1.9,0.2,3.8,0.3,5.5-0.6c1.6-0.8,2.6-2.4,3.9-3.5c0.4-0.4,0.8-0.6,1.3-0.7c1.3-0.3,2.4,1,3.2,2.2
	c0.9-3,1.4-6.2,1-9.2s-1.7-6.1-4-8.3c-2.5-2.3-5.7-3.5-9-3.5c-3.3,0-6.6,1-9.3,2.8c-1,0.6-2,1.4-2.5,2.5c-0.4,0.9-0.3,1.4-1,2.1
	C296,104,294,104.7,293.3,106.8z"/>
<path class="st3" d="M80.1,264.3l-38.8-22.4l-0.3-34.9l155.3-12.7l-0.3,34.9l-71.5,41.2l16.2,9.4l-16.9,9.8l-16.2-9.4l-22.6,13
	l-18.9-10.9L80.1,264.3z"/>
<path class="st3" d="M282.1,287.2c-0.3-3-1.3-5.9-3-8.5c-1.7-2.5-3.7-4.7-6.1-6.5c-2.1-1.7-4.4-3.2-6.7-4.6c-2.6-1.4-5.2-2.7-8-3.9
	c-0.1-0.1-0.2-0.1-0.3-0.2c-2.3-2.7,5.4-22.5,1.3-23.4c-4.3-1-20.4-7.5-25.8-7.7c-5.5-0.2-26.7,2.7-33.3,3.8
	c-6.6,1.1-12.8,10-20.5,12.8c-7.6,2.8-11.2,11.2-19.9,16.3c-6.9,4-7.2,15.4-9.3,22.1c-0.6,1.8-1.3,3.3-2.3,4.2
	c-4.8,4.4-8.2,8.5-10.1,12.3c-1.2,2.2-1.9,4.5-2.3,7c-0.2,1.1-0.2,2.3-0.1,3.4c0,0,0,0.1,0,0.1c0.3,3,1.3,5.8,3,8.3
	c1.7,2.5,3.7,4.7,6.1,6.5c2.1,1.7,4.4,3.2,6.7,4.6c2.6,1.4,5.2,2.7,8,3.9c3.6,1.5,7.4,2.7,11.3,3.5c4.8,1,9.7,1.6,14.6,1.8
	c6,0.1,12-0.3,18-1.4c6.5-1.1,13.6-3,21.3-5.8c7.6-2.8,15.8-6.7,24.6-11.8c8.8-5.1,15.6-9.8,20.4-14.2c4.8-4.4,8.2-8.5,10.1-12.3
	c1.2-2.3,2.1-4.9,2.4-7.5C282.2,289.1,282.2,288.1,282.1,287.2z M251.6,296.6c-2.9,3.5-6.3,6.6-10,9.1c-4.1,2.9-7.8,5.3-11.3,7.3
	c-3.4,2-7.7,4.2-12.7,6.5c-5.1,2.4-10.4,4.3-15.8,5.8c-5.5,1.5-11.1,2.2-16.8,2.2c-5.5,0-10.8-1.4-15.6-4.1c-4.7-2.7-7.1-5.7-7.1-9
	c0-3.3,1.3-6.5,3.9-9.7c2.4-2.9,5.1-5.5,8.1-7.7c0.6-0.5,1.3-1,1.9-1.4c4.1-2.9,7.8-5.3,11.3-7.3c3.4-2,7.7-4.2,12.7-6.5
	c5-2.3,6.3,13.5,11.8,12c5.5-1.5,14.2-6.4,19.9-6.4c4.1,0,9-12.8,12.6-11.4c1.4,0.5,2.7,1.2,4,1.9c4.7,2.7,7.1,5.7,7.1,9
	C255.5,290.2,254.2,293.4,251.6,296.6z"/>
<linearGradient id="SVGID_14_" gradientUnits="userSpaceOnUse" x1="211.4534" y1="215.1911" x2="205.0384" y2="350.9549" gradientTransform="matrix(1 0 0 -1 0 502)">
	<stop  offset="0" style="stop-color:#69E3FF"/>
	<stop  offset="1" style="stop-color:#69BBED;stop-opacity:0"/>
</linearGradient>
<path class="st18" d="M162.3,279.1V159.4l90.6-28.5l2.6,120.6c0,0,0.6,17-33.8,32.2S167,293.1,162.3,279.1z"/>
<linearGradient id="SVGID_15_" gradientUnits="userSpaceOnUse" x1="213.2838" y1="213.9258" x2="206.5285" y2="356.9533" gradientTransform="matrix(1 0 0 -1 0 502)">
	<stop  offset="0" style="stop-color:#69E3FF"/>
	<stop  offset="1" style="stop-color:#69BBED;stop-opacity:0"/>
</linearGradient>
<path class="st19" d="M175.6,282.7l-1.8-148.3l69.1-10l0.7,140.8c0,0,12.4,3.3-22,18.4S180.3,296.8,175.6,282.7z"/>
<radialGradient id="SVGID_16_" cx="225.6128" cy="228.9733" r="31.9721" gradientTransform="matrix(1 0 0 -1 0 502)" gradientUnits="userSpaceOnUse">
	<stop  offset="0" style="stop-color:#FFFFFF"/>
	<stop  offset="1" style="stop-color:#69E3FF;stop-opacity:0"/>
</radialGradient>
<circle class="st20" cx="225.6" cy="273" r="32"/>
<linearGradient id="SVGID_17_" gradientUnits="userSpaceOnUse" x1="206.1887" y1="279.6435" x2="211.346" y2="163.924" gradientTransform="matrix(1 0 0 -1 0 502)">
	<stop  offset="0" style="stop-color:#69E3FF"/>
	<stop  offset="1" style="stop-color:#1B76BC"/>
</linearGradient>
<path class="st21" d="M282.1,251.7V290c-0.3,2.6-1.1,5.2-2.4,7.5c-1.9,3.8-5.3,7.9-10.1,12.3S258,319,249.3,324
	c-8.8,5.1-17,9-24.6,11.7s-14.7,4.7-21.3,5.8c-5.9,1.1-11.9,1.5-18,1.4c-4.9-0.1-9.8-0.7-14.6-1.8c-3.8-0.8-7.6-2-11.3-3.5
	c-2.7-1.1-5.4-2.4-8-3.9c-2.3-1.4-4.6-2.9-6.7-4.6c-2.4-1.8-4.4-4-6.1-6.5c-1.7-2.5-2.8-5.3-3.1-8.3l0-3.6l0.4-32
	c4.5,3.2,9.3,6,14.2,8.6c7.6,4,15.6,7.3,23.8,9.7c18.4,5.2,40.2,5.9,57.6-9.7c4.6-4.1,8.8-7.9,12.6-11.4c5.2-4.8,9.7-8.9,13.6-12.5
	c16.2-15,21.1-20.2,21.1-20.2L282.1,251.7z"/>
<path class="st3" d="M271.1,374.7L228,349.8v-35.4l154.8-12.7v35.4l-71.5,41.2l16.2,9.4l-16.9,9.8l-16.3-9.4l-22.6,13l-18.9-10.9
	L271.1,374.7z"/>
<linearGradient id="SVGID_18_" gradientUnits="userSpaceOnUse" x1="74.6231" y1="303.8475" x2="76.6684" y2="198.993" gradientTransform="matrix(1 0 0 -1 0 502)">
	<stop  offset="0" style="stop-color:#69E3FF"/>
	<stop  offset="1" style="stop-color:#1B76BC"/>
</linearGradient>
<polygon class="st22" points="66.5,247 66.5,282.5 85.6,293.4 85.6,258 "/>
<linearGradient id="SVGID_19_" gradientUnits="userSpaceOnUse" x1="130.9318" y1="304.9447" x2="132.9771" y2="200.0902" gradientTransform="matrix(1 0 0 -1 0 502)">
	<stop  offset="0" style="stop-color:#69E3FF"/>
	<stop  offset="1" style="stop-color:#1B76BC"/>
</linearGradient>
<polygon class="st23" points="140.9,244.5 141,279.8 123.7,289.7 124,254.2 "/>
<linearGradient id="SVGID_20_" gradientUnits="userSpaceOnUse" x1="41.3424" y1="282.3372" x2="196.1219" y2="282.3372" gradientTransform="matrix(1 0 0 -1 0 502)">
	<stop  offset="0" style="stop-color:#69E3FF"/>
	<stop  offset="1" style="stop-color:#69BBED"/>
</linearGradient>
<path class="st24" d="M88.8,233.9l-47.5-27.4L60,195.7l114.7-14.3l21.5,12.4l-71.5,41.2l16.2,9.4l-16.9,9.8l-16.2-9.4l-22.6,13
	l-18.9-10.9L88.8,233.9z M150.5,198.3l-0.3-0.2l-72.7,9.7l28.2,16.3L150.5,198.3z"/>
<linearGradient id="SVGID_21_" gradientUnits="userSpaceOnUse" x1="135.6437" y1="236.7034" x2="282.1449" y2="236.7034" gradientTransform="matrix(1 0 0 -1 0 502)">
	<stop  offset="0" style="stop-color:#69E3FF"/>
	<stop  offset="1" style="stop-color:#69BBED"/>
</linearGradient>
<path class="st25" d="M282.1,251.7c-0.3-3-1.3-5.9-3-8.4c-1.7-2.5-3.7-4.7-6.1-6.5c-2.1-1.7-4.4-3.2-6.7-4.6c-2.6-1.4-5.2-2.7-8-3.9
	c-3.6-1.5-7.4-2.7-11.3-3.5c-4.8-1-9.7-1.6-14.6-1.8c-6-0.1-12,0.3-18,1.4c-6.5,1.1-13.6,3-21.3,5.8c-7.6,2.8-15.8,6.7-24.6,11.8
	c-8.8,5.1-15.6,9.8-20.4,14.2c-4.8,4.4-8.2,8.5-10.1,12.3c-1.9,3.8-2.7,7.2-2.4,10.4c0.3,3,1.3,5.9,3,8.4c1.7,2.5,3.7,4.7,6.1,6.5
	c2.1,1.7,4.4,3.2,6.7,4.6c2.6,1.4,5.2,2.7,8,3.9c3.6,1.5,7.4,2.7,11.3,3.5c4.8,1,9.7,1.6,14.6,1.8c1.1,0,2.3,0.1,3.4,0
	c4.9-0.1,9.7-0.6,14.5-1.4c6.5-1.1,13.6-3,21.3-5.8c1.4-0.5,2.7-1,4.1-1.6c7.1-2.9,13.9-6.3,20.5-10.2c8.8-5.1,15.6-9.8,20.4-14.2
	c4.8-4.4,8.2-8.5,10.1-12.3C281.6,258.3,282.4,254.9,282.1,251.7z M185,292.2c-4.7,0-9.4-1-13.7-3.1c-0.6-0.3-1.3-0.6-1.9-1
	c-4.7-2.7-7.1-5.7-7.1-9c0-3.3,1.3-6.5,3.9-9.7c2.6-3.1,5.6-6,8.9-8.3c0.4-0.3,0.7-0.5,1.1-0.8c4.1-2.9,7.8-5.3,11.3-7.3
	s7.7-4.2,12.7-6.5c5.1-2.4,10.4-4.3,15.9-5.8c3.6-1,7.3-1.6,11.1-2c1.9-0.2,3.8-0.3,5.7-0.3c5.5,0,10.8,1.4,15.6,4.1
	c4.7,2.7,7.1,5.7,7.1,9c0,3.3-1.3,6.5-3.9,9.7c-2.9,3.5-6.3,6.6-10,9.1c-4.1,2.9-7.8,5.3-11.3,7.3c-0.3,0.2-0.7,0.4-1,0.6
	c-3.3,1.8-7.1,3.8-11.7,5.9c-1.4,0.6-2.8,1.3-4.2,1.8c-2.7,1.1-5.4,2.1-8.3,3c-1.1,0.4-2.3,0.7-3.4,1c-3,0.8-6.1,1.4-9.2,1.8
	c0,0,0,0,0,0c-1.2,0.1-2.4,0.2-3.6,0.3C187.7,292.2,186.3,292.2,185,292.2L185,292.2z"/>
<path class="st26" d="M258.9,258.8c-3,16.1-53.7,34.4-53.7,34.4c-11.1,3.4-16.2-1.1-16.2-1.1c1.2-0.1,2.4-0.2,3.6-0.3c0,0,0,0,0,0
	c3.1-0.4,6.2-1,9.2-1.8c1.1-0.3,2.3-0.6,3.4-1c2.8-0.9,5.6-1.9,8.3-3c1.4-0.6,2.8-1.2,4.2-1.8c4.5-2.1,8.4-4.1,11.7-5.9
	c0.4-0.2,0.7-0.4,1-0.6c3.4-2,7.2-4.4,11.3-7.3c3.7-2.6,7.1-5.7,10-9.1c2.6-3.2,3.9-6.4,3.9-9.7c0-3.3-2.4-6.3-7.1-9
	c-1-0.6-2.1-1.1-3.1-1.6l0.6-0.5C245.8,240.4,261.9,242.7,258.9,258.8z"/>
<path class="st27" d="M162.7,286.6c0.4,1.5,1.2,2.9,2.3,4c1.8,1.8,5.9,3.3,5.9,3.3h2.2l2.5-2.7l-12.1-7L162.7,286.6z"/>
<linearGradient id="SVGID_22_" gradientUnits="userSpaceOnUse" x1="228.0099" y1="174.5083" x2="382.7703" y2="174.5083" gradientTransform="matrix(1 0 0 -1 0 502)">
	<stop  offset="0" style="stop-color:#69E3FF"/>
	<stop  offset="1" style="stop-color:#69BBED"/>
</linearGradient>
<path class="st28" d="M275.5,341.7L228,314.3l18.6-10.8l114.7-14.3l21.4,12.4l-71.5,41.3l16.2,9.4l-16.9,9.7l-16.3-9.4l-22.6,13
	l-18.9-10.9L275.5,341.7z M337.2,306.1l-0.3-0.2l-72.7,9.7l28.2,16.3L337.2,306.1z"/>
<linearGradient id="SVGID_23_" gradientUnits="userSpaceOnUse" x1="274.0586" y1="164.4747" x2="257.1799" y2="106.1657" gradientTransform="matrix(1 0 0 -1 0 502)">
	<stop  offset="0" style="stop-color:#69E3FF"/>
	<stop  offset="1" style="stop-color:#1B76BC"/>
</linearGradient>
<polygon class="st29" points="252.9,354.8 252.9,390.2 271.8,401.1 271.8,365.7 "/>
<linearGradient id="SVGID_24_" gradientUnits="userSpaceOnUse" x1="312.8898" y1="173.4093" x2="321.5872" y2="108.4483" gradientTransform="matrix(1 0 0 -1 0 502)">
	<stop  offset="0" style="stop-color:#69E3FF"/>
	<stop  offset="1" style="stop-color:#1B76BC"/>
</linearGradient>
<polygon class="st30" points="327.6,352.3 327.6,387.7 310.6,397.5 310.6,362.1 "/>
<linearGradient id="SVGID_25_" gradientUnits="userSpaceOnUse" x1="-4612.146" y1="1027.903" x2="-4618.5688" y2="1007.0292" gradientTransform="matrix(-1 -3.000000e-02 3.000000e-02 -1 -4447.7798 1115.5)">
	<stop  offset="0.42" style="stop-color:#F1D6D3"/>
	<stop  offset="0.65" style="stop-color:#EEC6D9"/>
	<stop  offset="1" style="stop-color:#F4ECCB"/>
</linearGradient>
<path class="st31" d="M198,258.4c4.6,1.8,9.8-2.9,10.4-4.7c0.2-0.6,0.2-2,0.1-3.6c-0.2-2.9-0.5-6.4,0-7.6c0,0-0.9,0-2.3,0.1
	c-4,0.2-10-2.7-10.3,0.5c0,0.1-1.6,5.4-1.6,5.4C193.9,252.8,193.5,256.6,198,258.4z"/>
<linearGradient id="SVGID_26_" gradientUnits="userSpaceOnUse" x1="-4624.3086" y1="1022.1814" x2="-4601.1602" y2="947.6359" gradientTransform="matrix(-1 -3.000000e-02 3.000000e-02 -1 -4447.7798 1115.5)">
	<stop  offset="0" style="stop-color:#EEC6D9"/>
	<stop  offset="0.42" style="stop-color:#785757"/>
	<stop  offset="1" style="stop-color:#F4ECCB"/>
</linearGradient>
<path class="st32" d="M195.9,243.1c3.8-1,12.6-0.5,12.6-0.5c-1,2.4,0,7.6,0,7.6c0,0,0,0.1,0,0.1c-0.3,0.6-0.8,1.2-1.3,1.6
	c-0.9,0.7-1.8,1.2-2.9,1.6c-0.2,0.1-0.5,0.1-0.8,0c-0.1-0.1-0.9,0.4-0.9,0.3c0.1-0.1,0.2-0.2,0.3-0.4c0.7-1-0.2-2.3-1.4-2.3
	c-2.2,0-4.8-2.9-5.5-5.8L195.9,243.1z"/>
<linearGradient id="SVGID_27_" gradientUnits="userSpaceOnUse" x1="188.6336" y1="252.2239" x2="202.819" y2="211.5938" gradientTransform="matrix(1 0 0 -1 0 502)">
	<stop  offset="0" style="stop-color:#C3CAF4"/>
	<stop  offset="1" style="stop-color:#1A7FC3"/>
</linearGradient>
<path class="st33" d="M222.3,266c-0.5-3.3-1.3-6.7-3-9.4c-0.2-0.3-0.4-0.6-0.6-0.9c-0.6-0.8-1.3-1.6-2.1-2.2c-1.8-1.4-3.9-2.3-6-3.1
	s-2.4-0.9-4.1,0.3l-5.6,4c-1.7,0.9-3.8,0.5-5-1.1c-0.3-0.4-0.6-0.9-0.7-1.4l-0.4-1.4l-0.5-1.7c0,0,0.1-1-0.4-1c-0.1,0-0.1,0-0.2,0
	c-4.6,1.4-7.9,3.1-11.4,4.5c-4,1.6-5.7,6.3-7.1,10c-1.8,4.7-3.6,9.4-5.6,14c-0.1,0.2-0.2,0.5-0.2,0.7c0.1,0.2,0.2,0.5,0.4,0.6l3.3,4
	c1.2,1.5,2.4,2.9,3.7,4.2c0.5,0.5,1.1,0.9,1.7,1.2c0.7,0.2,1.5,0,1.9-0.6c0.4-0.7,0.2-1.6,0.6-2.2c0.1,0.7,0.1,3.1,0.1,6.3
	c0,0.4,0,0.7,0,1.1c14.3,1.2,28.6-2.3,40.8-9.9l0.1-0.8C222.6,276.1,223.1,271.1,222.3,266z M181.9,270.3l-0.2,5.1
	C181.7,274.1,181.7,272.8,181.9,270.3z M181.6,276.4c0,1.1-0.1,2.3-0.2,4.3L181.6,276.4z"/>
<linearGradient id="SVGID_28_" gradientUnits="userSpaceOnUse" x1="170.0182" y1="216.0476" x2="181.2388" y2="216.0476" gradientTransform="matrix(1 0 0 -1 0 502)">
	<stop  offset="0" style="stop-color:#EEC6D9"/>
	<stop  offset="0.42" style="stop-color:#F1D6D3"/>
	<stop  offset="1" style="stop-color:#F4ECCB"/>
</linearGradient>
<path class="st34" d="M171.6,280.1l-1.6,3.2c0,0,0.5,4,0.8,5.2c0.5,1.9,8,3.3,8,3.3l2.4-8.2C181.2,283.7,176.7,285.3,171.6,280.1z"
	/>
<path class="st27" d="M213.5,286c-2.7,1.1-5.4,2.1-8.3,3c-3.6,0.9-8.1,1.9-12.6,2.8c0,0,0,0,0,0c-1.2,0.1-2.4,0.2-3.6,0.3
	c-1.3,0.1-2.7,0.1-4,0.1c-4.7,0-9.4-1-13.7-3.1l1.8-4.8l7.4,2.4c0,0,20.7-1.9,25-2.2c4.3-0.3,8-16.2,8-16.2v16.2L213.5,286z"/>
<path class="st35" d="M213.5,286v0.9c0,0-3.4,0.9-8.3,2C208,288.1,210.8,287.1,213.5,286z"/>
<linearGradient id="SVGID_29_" gradientUnits="userSpaceOnUse" x1="310.209" y1="331.5953" x2="309.2616" y2="330.075" gradientTransform="matrix(0.9736 -0.2282 -0.2282 -0.9736 -44.7949 675.5336)">
	<stop  offset="0" style="stop-color:#C3CAF4"/>
	<stop  offset="1" style="stop-color:#1A7FC3"/>
</linearGradient>
<path class="st36" d="M181.2,283.7c0-0.7,0.1-1.3,0.1-1.9L181.2,283.7z"/>
<linearGradient id="SVGID_30_" gradientUnits="userSpaceOnUse" x1="313.9466" y1="342.8932" x2="311.0749" y2="338.2817" gradientTransform="matrix(0.9736 -0.2282 -0.2282 -0.9736 -44.7949 675.5336)">
	<stop  offset="0" style="stop-color:#C3CAF4"/>
	<stop  offset="1" style="stop-color:#1A7FC3"/>
</linearGradient>
<path class="st37" d="M181.9,269.8l-0.3,5.6C181.7,274.1,181.7,272.7,181.9,269.8z"/>
<linearGradient id="SVGID_31_" gradientUnits="userSpaceOnUse" x1="-4628.1616" y1="1001.57" x2="-4613.3364" y2="1001.57" gradientTransform="matrix(-1 -3.000000e-02 3.000000e-02 -1 -4447.7798 1115.5)">
	<stop  offset="0" style="stop-color:#C3CAF4"/>
	<stop  offset="1" style="stop-color:#1A7FC3"/>
</linearGradient>
<path class="st38" d="M195.2,252.1c1.6,6.8,9.2,2.8,12.8,0.4c1.2-0.8,2-1.5,2-1.5l-1.7-1.8h0c-0.6,0.5-1.2,1-1.7,1.4
	C198.3,257.1,195.4,252.5,195.2,252.1z"/>
<linearGradient id="SVGID_32_" gradientUnits="userSpaceOnUse" x1="442.2459" y1="1494.2029" x2="467.1871" y2="1494.2029" gradientTransform="matrix(0.9664 -0.257 -0.257 -0.9664 145.7956 1794.9125)">
	<stop  offset="0" style="stop-color:#EEC6D9"/>
	<stop  offset="0.42" style="stop-color:#F1D6D3"/>
	<stop  offset="1" style="stop-color:#F4ECCB"/>
</linearGradient>
<path class="st39" d="M209.7,223.7c0.6,0.4,1,1,1.2,1.6c0.8,1.9,1.1,3.8,1.7,5.8c0.2,0.8,1,1.5,1.6,3.2s1.5,11-3.3,12.9
	c-4.8,1.9-8.9-0.2-10.5-1.1c-1.7-0.9-6.1-4.3-6.1-4.3s-4.2-4.3-5.6-7c-1.4-2.7-1.8-8.9,0.3-10.1l2.1-1.2c-0.1-1,0.6-2,1.3-2.6
	c2.2-1.9,4.3-1.5,6.9-0.7c2.2,0.7,4.5,1.1,6.7,1.8C207.4,222.6,208.7,223,209.7,223.7z"/>
<path class="st40" d="M211.1,223.8c-0.4,0.1-0.8,0.2-1.1,0.3c-0.7,0.3-1.3,1.1-2.1,1.1c-7.2,0.5-7.3,4-7.8,4.4
	c-0.9,0.7-2.4,0.1-3.4,0.8c-0.8,0.5-0.9,1.7-0.6,2.6c0.3,0.9,0.8,1.7,1,2.6c0.1,0.3,0.6,1.1,0.5,1.4c0,0.1-0.8,0.1-0.9,0.1l-0.8-0.9
	c-0.3-0.4-0.6-0.7-0.9-1c-0.6-0.5-1.1-0.9-1.6-0.8c-0.3,0.1-0.5,0.2-0.6,0.5c-0.8,1-0.3,2.5,0.6,3.4s2.1,1.6,2.8,2.6
	c0.5,0.7,0.7,1.5,0.7,2.3c-0.7,0.5-1.7,0-2.4-0.6c-3.4-2.7-3.2-5.4-6.9-7.6c0,0-0.6,0-0.7-0.1c-0.3-0.1-0.6-0.3-0.9-0.6
	c-0.5-0.5-1-1-1.2-1.7c-0.7-1.6-0.7-3.4,0.1-5c0.9-1.9,2.7-3.2,4.5-4.5c1.7-1.2,3.5-2.7,4.2-4.7c0.7-2.1,0.7-4,2.5-5.6
	c1.8-1.6,4.3-2.3,6.6-2.8c1.8-0.4,3.8-0.8,5.4,0.2c0.7,0.5,1.3,1.2,1.7,2c0.7,1.3,1,2.8,0.9,4.3c1.3,0.5,2.6,1.3,3.2,2.6
	c0.6,1.3,0.3,3-0.8,3.8C212.2,223.5,211.7,223.7,211.1,223.8z"/>
<path class="st41" d="M196.8,243.4c-0.7,0.5-1.7,0-2.4-0.6c-3.4-2.7-3.2-5.4-6.9-7.6c-0.2,0.1-0.4,0.1-0.5,0.1l0,0
	c-0.1-0.2-0.1-0.4-0.1-0.5c0.1-0.2,0.3-0.3,0.5-0.4c1.9-0.7,4.6-1.6,6,0.3c-0.3,0.1-0.5,0.2-0.6,0.5c-0.8,1-0.3,2.5,0.6,3.4
	s2.1,1.6,2.8,2.6C196.6,241.8,196.8,242.6,196.8,243.4z"/>
<linearGradient id="SVGID_33_" gradientUnits="userSpaceOnUse" x1="161.0996" y1="215.5341" x2="173.8465" y2="215.5341" gradientTransform="matrix(1 0 0 -1 0 502)">
	<stop  offset="0" style="stop-color:#EEC6D9"/>
	<stop  offset="0.42" style="stop-color:#F1D6D3"/>
	<stop  offset="1" style="stop-color:#F4ECCB"/>
</linearGradient>
<path class="st42" d="M162.7,282.6c-0.4,0.4-0.7,0.9-0.9,1.3c-0.3,0.5-0.6,1.1-0.6,1.7c0,0.4,0.1,0.7,0.4,0.9c0.4,0.2,0.8,0.2,1.1,0
	c0.3-0.2,0.6-0.5,0.9-0.8c0.4-0.5,0.8-1.1,1.2-1.7c-0.5,1-1.1,2-1.1,3.1c-0.1,0.4,0,0.9,0.3,1.2c0.3,0.4,0.8,0.5,1.2,0.3
	c0.3-0.2,0.5-0.4,0.6-0.8c0.4-0.9,0.8-1.8,1.6-2.3c-0.5,0.6-0.9,1.3-1.1,2.1c-0.3,0.8-0.2,1.6,0.3,2.2c0.1,0.2,0.4,0.4,0.6,0.4
	c0.2,0,0.4-0.1,0.5-0.2c1-0.6,1.2-2,2.2-2.7c-0.4,0.7-0.6,1.4-0.8,2.2c-0.2,0.5-0.2,1.1,0,1.6c0.2,0.6,0.8,0.9,1.4,0.8
	c0.7-0.2,0.9-1.1,1.2-1.7c0.4-0.7,1.1-1.2,1.6-1.8c1.1-1.2,1.2-3.2,0-4.3c-0.8-0.8-1.9-1.1-2.8-1.7c-0.6-0.4-1-1-1.7-1.4
	C166.7,280.2,163.9,281.2,162.7,282.6z"/>
<linearGradient id="SVGID_34_" gradientUnits="userSpaceOnUse" x1="710.7833" y1="429.3485" x2="723.5297" y2="429.3485" gradientTransform="matrix(0.7072 -0.707 -0.707 -0.7072 15.9387 1096.9199)">
	<stop  offset="0" style="stop-color:#EEC6D9"/>
	<stop  offset="0.42" style="stop-color:#F1D6D3"/>
	<stop  offset="1" style="stop-color:#F4ECCB"/>
</linearGradient>
<path class="st43" d="M213.5,286.9c0,0.5,0.1,1.1,0.3,1.6c0.1,0.6,0.3,1.1,0.7,1.6c0.2,0.3,0.6,0.4,1,0.4c0.4-0.1,0.7-0.4,0.8-0.8
	c0.1-0.4,0.1-0.8,0.1-1.2c-0.1-0.7-0.2-1.4-0.4-2.1c0.3,1.1,0.7,2.2,1.4,3c0.3,0.3,0.6,0.6,1.1,0.7c0.5,0.1,0.9-0.2,1.1-0.6
	c0.1-0.3,0-0.7-0.1-0.9c-0.3-0.9-0.7-1.8-0.5-2.8c0.1,0.8,0.3,1.6,0.7,2.3c0.4,0.7,1,1.2,1.8,1.4c0.3,0.1,0.5,0,0.8-0.1
	c0.1-0.1,0.2-0.3,0.2-0.5c0.3-1.2-0.6-2.3-0.3-3.4c0.2,0.7,0.6,1.5,0.9,2.1c0.2,0.5,0.6,0.9,1.1,1.2c0.5,0.2,1.2,0.1,1.5-0.4
	c0.4-0.7-0.1-1.4-0.4-2.1c-0.2-0.8-0.1-1.6-0.1-2.4c-0.1-1.6-1.4-3.1-3-3.1c-1.1,0-2.1,0.6-3.2,0.7c-0.7,0.1-1.5,0-2.2,0.2
	C214.6,282.3,213.4,285,213.5,286.9z"/>
<path class="st27" d="M181.2,283.7l0.5-21.3l-6.1,20.4C175.6,282.7,177.1,284.1,181.2,283.7z"/>
<linearGradient id="SVGID_35_" gradientUnits="userSpaceOnUse" x1="174.3543" y1="217.7489" x2="174.6525" y2="211.0662" gradientTransform="matrix(1 0 0 -1 0 502)">
	<stop  offset="0" style="stop-color:#EEC6D9"/>
	<stop  offset="0.42" style="stop-color:#F1D6D3"/>
	<stop  offset="1" style="stop-color:#F4ECCB"/>
</linearGradient>
<path class="st44" d="M173,288.6c0,0,0.7,1.9,2.6,2.4s-1.8-5.4-1.8-5.4L173,288.6z"/>
<linearGradient id="SVGID_36_" gradientUnits="userSpaceOnUse" x1="211.8876" y1="218.3796" x2="212.052" y2="214.6713" gradientTransform="matrix(1 0 0 -1 0 502)">
	<stop  offset="0" style="stop-color:#EEC6D9"/>
	<stop  offset="0.42" style="stop-color:#F1D6D3"/>
	<stop  offset="1" style="stop-color:#F4ECCB"/>
</linearGradient>
<path class="st45" d="M213.7,285.2c0,0-1.8-1.4-3-0.6c-1.2,0.8,0.7,2.8,0.7,2.8l2.1-0.5C213.4,286.4,213.5,285.8,213.7,285.2z"/>
<linearGradient id="SVGID_37_" gradientUnits="userSpaceOnUse" x1="215.3122" y1="313.9749" x2="238.4187" y2="313.9749" gradientTransform="matrix(1 0 0 -1 0 502)">
	<stop  offset="0" style="stop-color:#69E3FF"/>
	<stop  offset="1" style="stop-color:#69BBED"/>
</linearGradient>
<path class="st46" d="M225.2,196.2c-1.1,0-2.1-0.9-2.1-2.1l0,0v-0.9c0-0.7,0-1.4,0.1-2c0.1-0.5,0.2-1,0.5-1.5
	c0.2-0.5,0.6-0.9,0.9-1.3c0.4-0.4,0.8-0.9,1.4-1.5l4.2-4.2c0.9-0.9,1.4-2.2,1.4-3.5c0-1.3-0.5-2.5-1.4-3.4c-0.9-0.9-2.2-1.4-3.5-1.3
	c-1.4,0-2.8,0.5-3.7,1.5c-0.4,0.5-0.8,1-1.1,1.5c-0.6,1.3-2,2.1-3.4,2l0,0c-1.9-0.1-3.3-1.8-3.2-3.7c0-0.4,0.1-0.8,0.3-1.2
	c0,0,0-0.1,0-0.1c0.7-1.3,1.6-2.5,2.7-3.4c1.1-1,2.4-1.7,3.8-2.1c1.5-0.5,3.2-0.8,4.8-0.7c1.5,0,3.1,0.2,4.5,0.7
	c1.3,0.4,2.6,1.1,3.6,2c1,0.9,1.9,2,2.4,3.3c0.6,1.4,0.9,3,0.9,4.5c0,1.1-0.1,2.1-0.5,3.1c-0.3,0.9-0.8,1.7-1.3,2.5
	c-0.5,0.8-1.2,1.5-1.8,2.2c-0.7,0.7-1.5,1.4-2.3,2.2c-0.5,0.5-0.9,0.9-1.3,1.2c-0.3,0.3-0.6,0.7-0.9,1.1c-0.2,0.4-0.4,0.8-0.5,1.3
	c-0.1,0.6-0.2,1.2-0.2,1.8l0,0c0,1.1-0.9,2.1-2.1,2.1l0,0L225.2,196.2z M222,203.8c0-1.1,0.4-2.2,1.3-3c0.8-0.8,1.9-1.3,3.1-1.2
	c1.1,0,2.2,0.4,3,1.2c0.8,0.7,1.3,1.8,1.3,2.9c0,1.1-0.4,2.2-1.3,3c-0.8,0.8-1.9,1.3-3.1,1.3c-0.6,0-1.1-0.1-1.7-0.3
	c-0.5-0.2-1-0.5-1.4-0.9c-0.4-0.4-0.7-0.8-0.9-1.3C222.1,204.9,222,204.3,222,203.8z"/>
<linearGradient id="SVGID_38_" gradientUnits="userSpaceOnUse" x1="379.0712" y1="383.6388" x2="328.695" y2="297.9569" gradientTransform="matrix(1 0 0 -1 0 502)">
	<stop  offset="0" style="stop-color:#69E3FF"/>
	<stop  offset="1" style="stop-color:#69BBED"/>
</linearGradient>
<path class="st47" d="M340.6,122.3c1.2-1.1,2.9-1.8,5.3-2.1c1.8-0.2,3.6,0.1,5.4,0.4l8.8,1.4c2.1,0.3,4.2,0.7,6.1,1.5
	c3.9,1.8,6.6,5.5,7.1,9.8c2.5-0.7,5.4,0.4,7.2,2.3s2.8,4.5,3.4,7c0.7,2.6,1.1,5.2,1.1,7.9c0,3.1-0.1,6.1-0.4,9.1l-0.8,8.8
	c-0.2,2.2-0.4,4.6-1.6,6.5c-1.3,2.1-3.6,3.4-6,3.8s-4.9,0.1-7.3-0.6c-0.7-0.2-1.5-0.5-2-1c-0.4-0.6-0.7-1.3-0.8-2l-3.4-16.4
	c-0.3-1.5-0.6-3-0.4-4.5c0.2-1.5,1-2.9,2.4-3.5c-3.7,2.6-7,0.2-10.5-1.6c-3.6-1.9-7.9-3.9-10.6-7.1
	C339.5,137.2,335.5,126.8,340.6,122.3z"/>
<linearGradient id="SVGID_39_" gradientUnits="userSpaceOnUse" x1="375.0098" y1="318.5772" x2="370.8121" y2="321.1616" gradientTransform="matrix(1 0 0 -1 0 502)">
	<stop  offset="0" style="stop-color:#69E3FF"/>
	<stop  offset="1" style="stop-color:#69BBED"/>
</linearGradient>
<path class="st48" d="M364.6,185.4c-0.6,0.5-1.1,1.2-1.5,1.9c-0.3,0.7-0.3,1.6,0.2,2.3c0.6,0.7,1.6,0.9,2.6,0.9
	c4,0.2,8.1-0.7,11.3-3.1c3.2-2.3,5.5-6.2,5.3-10.1c0-1.5-0.5-3-1.7-3.8c-1-0.6-2.2-0.6-3.4-0.5c-3.1,0.3-7.5,0.9-9.6,3.4
	c-0.8,1-1.5,2.6-2,3.7C365.1,182.1,366.2,183.9,364.6,185.4z"/>
<path class="st9" d="M348.4,219.5c-0.3,2.4-0.8,5.2-2.9,6.4c-1.6,1-3.7,0.7-5.6,0.4c-0.9-0.1-1.8-0.4-2.6-0.8
	c-1.9-1.1-2.2-3.7-2.4-5.9c-0.5-5.9-0.9-11.8-1.4-17.8c-0.2-3.1-0.5-6.3-0.1-9.4c0-0.5,0.2-1,0.5-1.3c0.4-0.4,1-0.4,1.6-0.5
	c3-0.1,8.2-1.1,11-0.1c3.3,1.1,2.5,3.6,2.6,7.2C349.4,205,349.1,212.3,348.4,219.5z"/>
<path class="st9" d="M344.9,234.6c1.4,0,2.9,0.2,4,0.9c2.1,1.4,2.6,4.1,2.9,6.6c1.3,9.5,2.6,19.2,1.8,28.7c-0.2,2.5-1,5.5-3.4,6.2
	c-1.1,0.3-2.2,0-3.3,0.1c-0.9,0-1.7,0.2-2.6,0c-1.7-0.6-2.2-2.7-2.5-4.5c-1-7.4-2.5-14.7-4.6-21.9c-1-3.4-3.8-9.6-2-13.1
	C336.8,234.6,342.1,234.6,344.9,234.6z"/>
<path class="st9" d="M324.5,188.7c0.5,0.1,0.9,0.3,1.2,0.7c0.2,0.4,0.4,0.8,0.4,1.3c1,9.2-0.9,18.5,0.4,27.6c0.2,1.6,0.4,3.5-1,4.4
	c-0.6,0.3-1.2,0.4-1.8,0.4c-2.3,0.2-5,0.1-6.4-1.7c-0.8-1-0.9-2.3-1.1-3.5c-0.9-7.7-1.4-15.4-1.3-23.1c0-2.1-0.1-6.1,1.6-7.6
	C318,185.7,322.6,188.1,324.5,188.7z"/>
<path class="st9" d="M316.4,236.1c0-0.5,0.2-1.1,0.5-1.5c0.6-1,1.9-1.2,3.1-1.4c1.2-0.1,2.5-0.2,3.4,0.6c0.3,0.3,0.6,0.7,0.7,1.1
	c0.7,1.6,1,3.4,1.1,5.2c0.8,7.8,1.3,15.7,1.3,23.6c0,0.4,0,0.8-0.2,1.2c-0.2,0.4-0.6,0.7-1,0.8c-2.1,1-5.8,0.8-7.3-1.4
	c-1-1.5-0.7-4.3-1-6C315.8,250.9,315.3,243.7,316.4,236.1z"/>
<path class="st9" d="M370.8,143.7c-1.1,2.7-3.2,4.8-5.9,5.9c1.9,0.4,3.3,2.2,3.8,4.1c0.5,1.9,0.4,3.9,0.5,5.9
	c0.1,3.5,0.7,6.9,1.8,10.2c0.5,1.5,1.1,3,1,4.6c-0.1,1.6-1.1,3.2-2.7,3.4c-1.2,0.1-2.4-0.7-3.1-1.8s-0.9-2.3-1.1-3.6l-2-12.2
	c-0.5-3.1-1-6.4-0.4-9.5c-1.2,1.7-3.8,1.3-5.7,0.6c-5.9-2.2-11.3-5.7-15.7-10.3c-2.4-2.5-4.5-5.6-4.7-9.1c-0.1-1.5,0.4-3.8,2.2-3.3
	c1.1,0.3,2.6,3.3,3.4,4.1c2.4,2.6,5.1,4.8,8.2,6.6c3,1.8,6.3,3.1,9.8,3.8C361.5,143.4,370.3,145,370.8,143.7z"/>
<linearGradient id="SVGID_40_" gradientUnits="userSpaceOnUse" x1="322.2133" y1="349.5692" x2="319.0555" y2="369.0896" gradientTransform="matrix(1 0 0 -1 0 502)">
	<stop  offset="0" style="stop-color:#69E3FF"/>
	<stop  offset="1" style="stop-color:#69BBED"/>
</linearGradient>
<path class="st49" d="M313.5,136.9c3.6,0.3,7.1,0.5,10.7,0.5c2,0,4.1,0,5.8-1.1c1.6,1.4,3.1,3,4.3,4.7c-1,0.7-1.9,1.6-2.6,2.5
	c-0.4,0.6-0.8,1.2-1.3,1.7c-0.7,0.5-1.5,1-2.3,1.2l-12.5,4.6c-0.7,0.3-1.5,0.5-2.1,0.1c-0.3-0.2-0.5-0.4-0.6-0.7
	c-2.3-3.4-5.2-7-6.5-10.9C304.5,134.5,310.9,136.7,313.5,136.9z"/>
<path class="st3" d="M423.9,262.7V90.1c0-1.6,1.3-2.9,2.9-2.9l0,0c1.6,0,2.9,1.3,2.9,2.9v172.6c0,1.6-1.3,2.9-2.9,2.9l0,0
	C425.2,265.6,423.9,264.3,423.9,262.7z"/>
<linearGradient id="SVGID_41_" gradientUnits="userSpaceOnUse" x1="295.0622" y1="71.4067" x2="296.7405" y2="71.4067" gradientTransform="matrix(1 0 0 -1 0 502)">
	<stop  offset="0" style="stop-color:#69E3FF"/>
	<stop  offset="0.66" style="stop-color:#69C9F3"/>
	<stop  offset="1" style="stop-color:#69BBED"/>
</linearGradient>
<polygon class="st50" points="296.7,430.9 295.1,430.9 295.9,430.3 "/>
<polygon class="st51" points="41.3,206.5 88.8,233.9 66.2,246.9 76,251.6 101.5,234.4 52.1,205.4 64.4,196.2 60,195.8 "/>
<polygon class="st51" points="236.5,309.2 360,294.2 377.5,304.7 382.8,301.7 361.3,289.3 246.7,303.6 "/>
<g id="Logo">
	<g id="Group">
		<path id="Rectangle" class="st52" d="M449.8,96.8l1.7,0.4c0.2,0.1,0.4,0.3,0.3,0.5c0,0,0,0,0,0l-6.8,20.6
			c-0.1,0.2-0.3,0.4-0.6,0.3l-1.7-0.4c-1.1-0.3-1.7-1.4-1.4-2.5c0-0.1,0-0.1,0.1-0.2l5.6-17.2C447.4,97.3,448.6,96.6,449.8,96.8z"/>
		<path id="Rectangle-2" class="st52" d="M458.9,91.5l1.7,0.4c0.2,0.1,0.4,0.3,0.3,0.5c0,0,0,0,0,0l-6.7,20.6
			c-0.1,0.2-0.3,0.4-0.6,0.3l-1.7-0.4c-1.1-0.3-1.7-1.4-1.4-2.4c0-0.1,0-0.1,0.1-0.2l5.6-17.2C456.5,92,457.7,91.3,458.9,91.5z"/>
		<path id="Rectangle-3" class="st52" d="M468.3,86.1l1.6,0.4c0.2,0.1,0.4,0.3,0.3,0.5c0,0,0,0,0,0l-6.7,20.6
			c-0.1,0.2-0.3,0.4-0.6,0.3l-1.6-0.4c-1.1-0.3-1.7-1.4-1.4-2.4c0-0.1,0-0.1,0.1-0.2l5.6-17.2C465.9,86.6,467.1,85.9,468.3,86.1z"/>
	</g>
</g>
<g id="Logo-2">
	<g id="Group-2">
		<path id="Rectangle-4" class="st52" d="M316.3,144.9l0.8,0.5c0.1,0.1,0.2,0.2,0.2,0.3l-1.8,6.3c0,0.1-0.1,0.1-0.2,0l-0.8-0.5
			c-0.5-0.3-0.9-0.9-0.8-1.3l1.5-5.3C315.3,144.6,315.8,144.6,316.3,144.9z"/>
		<path id="Rectangle-5" class="st52" d="M320.1,144.7l0.8,0.5c0.1,0.1,0.2,0.2,0.2,0.3l-1.8,6.4c0,0.1-0.1,0.1-0.2,0l-0.8-0.5
			c-0.5-0.3-0.9-0.9-0.8-1.3l1.5-5.3C319,144.4,319.5,144.4,320.1,144.7z"/>
		<path id="Rectangle-6" class="st52" d="M323.9,144.5l0.8,0.5c0.1,0.1,0.2,0.2,0.2,0.3l-1.8,6.3c0,0.1-0.1,0.1-0.2,0l-0.8-0.5
			c-0.5-0.3-0.9-0.9-0.8-1.3l1.5-5.3C322.9,144.2,323.4,144.2,323.9,144.5z"/>
	</g>
</g>
<linearGradient id="SVGID_42_" gradientUnits="userSpaceOnUse" x1="320.0486" y1="385.7072" x2="318.1103" y2="383.4096" gradientTransform="matrix(1 0 0 -1 0 502)">
	<stop  offset="0" style="stop-color:#EEC6D9"/>
	<stop  offset="0.42" style="stop-color:#F1D6D3"/>
	<stop  offset="1" style="stop-color:#F4ECCB"/>
</linearGradient>
<path class="st53" d="M320.2,116.7c0.1,0.8,0.2,2.5-0.7,2.9c-0.7,0.4-1.1-0.3-1.4-0.9c-0.3-0.7-0.5-2-0.1-2.7
	C318.7,114.8,320,115.6,320.2,116.7z"/>
</svg>
