<svg id="Calque_1" data-name="Calque 1" xmlns="http://www.w3.org/2000/svg" viewBox="0 0 99.77 100">
    <g id="Regular-M">
        <path d="M54,4A4,4,0,0,0,46,4v9.68a4,4,0,0,0,8.06,0ZM72.74,21.57a4.1,4.1,0,0,0,0,5.67,4,4,0,0,0,5.72,0l6.86-6.87a4,4,0,0,0-5.62-5.72ZM21.5,27.24a4,4,0,0,0,5.71-5.67l-6.86-6.92a4,4,0,0,0-5.72,5.67ZM50,26.5A23.53,23.53,0,1,0,73.43,50,23.66,23.66,0,0,0,50,26.5Zm0,7A16.48,16.48,0,1,1,33.48,50,16.58,16.58,0,0,1,50,33.55ZM95.83,54a4,4,0,1,0,0-8H86.2a4,4,0,0,0,0,8ZM4.12,46a4,4,0,0,0,0,8h9.64a4,4,0,1,0,0-8ZM78.41,72.81a4,4,0,0,0-5.67,5.67l7,6.91a4,4,0,0,0,5.62-5.71ZM14.63,79.63a4,4,0,0,0,5.67,5.72l6.87-6.87a4.06,4.06,0,0,0,0-5.67,4.14,4.14,0,0,0-5.71,0ZM54,86.31a4,4,0,0,0-8.06,0V96A4,4,0,0,0,54,96Z" transform="translate(-0.12)"/>
    </g>
</svg>
